<?xml version="1.0" encoding="utf-8"?>
<!-- Generator: Adobe Illustrator 24.3.0, SVG Export Plug-In . SVG Version: 6.00 Build 0)  -->
<svg version="1.1" id="Calque_1" xmlns="http://www.w3.org/2000/svg" xmlns:xlink="http://www.w3.org/1999/xlink" x="0px" y="0px"
	 viewBox="0 0 1024 1024" style="enable-background:new 0 0 1024 1024;" xml:space="preserve">
<style type="text/css">
	.st0{fill:#C1488E;}
</style>
<g>
	<path class="st0" d="M587.2,432.2c-0.3,1-0.4,1.8,1.4,2.2C588,433.5,587.6,432.9,587.2,432.2c-0.7-0.7-1.3-1.5-2-2.4
		c-0.7,1.4-0.6,2.6,0,3.8c-1.2-0.7-2.3-1.4-3.5-2.2c-0.4-0.2-0.9-0.9-1-0.8c-1.7,1-2.7-1-4.1-0.8c-1.4,2.3-1.3,2.6,1.6,3.6
		c0.5,1.6,0.7,3.2,1.4,4.6c1,2,2.4,3.8,3.6,5.7c0.1,0.2,0,0.5,0.1,0.8c1.1,2.9,1.4,6.2,4.2,8.2c0.3,0.2,0.6,0.8,0.6,1.2
		c0,1.1,0.4,1.9,1.2,2.8c0.8,1,1.7,2,2.2,3.2c1.2,3.3,3.7,5.1,6.8,6.3c3.4,1.3,6.4,2.9,6.5,7.4c0.1,3.2,1.2,6.1,3,9
		c1.5,2.4,3.5,4.7,3.8,7.8c0,0.6,0.7,1.1,1.1,1.6c0.7,0.9,1.5,1.8,2.3,2.7c3.6,4.1,5.1,9,5.5,14.2c0.3,3.4,1.3,6.5,1.9,9.8
		c0.5,2.6,1.6,5.2,1.8,7.8c0.3,4.4,2.2,8.3,3.3,12.5c1.1,4.1,2.5,8.2,2.2,12.4c-0.2,3.2-0.2,6.4-0.8,9.6c-0.5,2.4-0.3,5-0.4,7.5
		c-0.2,4.1-0.3,8.3-0.5,12.4c-0.1,1.4,0.1,2.9-0.4,4.2c-1,2.6-2.5,5-3.7,7.5c-0.4,0.8-0.5,1.7-0.4,2.6c0,0.3,1,0.5,0.4,1.2
		c-0.8,1.1-0.4,2.2-0.1,3.2c0.8,3.3,0.5,6.6-0.3,9.8c-0.5,1.7-0.5,3.3-0.6,5c-0.1,1.8-0.2,3.5-0.5,5.3c-0.3,1.6-1,3.2-1.3,4.9
		c-1,5.1-2.8,10-5.1,14.6c-1.8,3.7-3.1,7.6-4.8,11.3c-2,4.4-3.2,9.2-5.6,13.5c-2.4,4.5-4.4,9.1-6,14c-2.1,6.2-5.1,12.1-7.6,18.2
		c-0.6,1.5-0.7,3.4-1.8,4.3c-1.8,1.7-2,3.9-3,5.9c-0.2,0.4-0.6,1-0.4,1.3c1.3,2.4-0.2,3.4-2,4c-0.1,1.1-0.1,2.1-0.2,3.1
		c-0.2,0-0.3,0-0.5,0.1c-0.2-0.4-0.5-0.8-0.7-1.1c-2.2,1.2-0.5,3.2-1.1,4.8c-0.7-0.2-1.3-0.3-1.9-0.4c-0.7,2-1.4,3.7-2.1,5.6
		c-0.3,0.1-0.8,0.4-1.2,0.4c-2.3,0.5-2.7,0.9-2.7,3.1c0,0.6-0.1,1.1-0.2,1.7c-0.4,1.6-0.9,3.1-1.4,4.6c-0.8,0.2-2.1,0.1-2.5,0.7
		c-0.8,1.2-2.5,1.7-2.8,3.4c-0.1,0.7-0.8,1.7-1.4,2c-2.7,1.2-2.6,4.6-5.2,6.1c-1.4,0.8-2,3.3-2.9,5c-0.3,0.6-0.6,1.2-1.1,1.6
		c-2.5,1.8-3.8,4.6-5.4,7.1c-0.4,0.7-0.8,1.5,0.2,2.3c0.5-0.7,0.9-1.2,1.4-2c1.1,2.1-1.4,3.2-0.8,4.9c0.5,0.9,1,1.9,1.2,2.9
		c0.3,1.3,1,2.4,2.3,2.6c0.6,0.1,1.7-0.8,2.1-1.5c1.2-1.7,2.7-2.3,4.7-2.3c0.5-0.8,1-1.5,1.4-2.1c1.9,0.3,3.5,0.8,5.1,0.7
		c2.1-0.1,4.1-0.5,4.9-3c0.5-1.8,1.5-0.8,2.2-0.3c1-0.6,2-1.7,2.8-1.6c2.2,0.3,2.3-1.2,2.7-2.9c1.3,1.7,2.6,1.6,4,0.5
		c0.3-0.3,1-0.4,1.3-0.2c1.8,0.9,4.2,0.8,5.5,3c1.8,3.1,3.8,6,5.5,9.2c0.6,1.2,1.2,2,2.6,2.2c0.7-0.8,1.4-1.7,2.3-2.7
		c-1-0.4-1.6-0.7-2.9-1.2c3.1-0.4,5.4-0.9,7.2-2.7c0.3-0.3,0.8-0.4,1.3-0.5c2.5-0.4,4.1-1.9,5-4.1c0.5-1.3,1.5-2.1,2.5-2.8
		c1-0.8,2-1.7,3-2.5c0.5-0.4,1-0.6,1.7-1c0.1,0.7,0.1,1.1,0.1,1.4c-2.5,1.1-2.7,1.3-1.9,3.2c-0.7-0.1-1.4-0.2-2.2-0.4
		c-1.1,1.5-2.2,2.9-3.2,4.4c2.4-0.6,3.6-2.7,5.4-4c0.6-1.1,1.3-2.2,1.9-3.2c0.3-0.3,1-0.6,1-0.7c-0.3-1.8,1-2.4,2.1-3
		c0.5-1.4-0.4-3.4,2-3.4c0.1,0,0.3-0.8,0.3-1.3c0-0.7-0.1-1.4-0.2-2.6c1.6,0.5,2.9,0.9,4.3,1.4c1.3-2.2,4.1-3.1,4.3-6
		c2.4,0.1,3.2-1.8,4.4-3.2c1.5-1.8,2.8-3.8,4.3-5.6c2.4-3,4.9-6,7.3-9c0.1-0.1,0-0.4,0.1-0.7c-0.5-0.5-1.1-1-1.8-1.6
		c0.5-0.6,0.8-1.1,1.3-1.7c0.7,1.1,1.3,1.9,1.9,2.7c0.2-0.1,0.4-0.1,0.5-0.2c0-1.4,0-2.8,0-4.3c1,0.9,1.7,1,2.7,0.4
		c2.8-1.6,4.6-4.3,6.4-6.7c2.4-3.4,4.9-6.5,7.6-9.7c1-1.1,1.4-3,2.6-3.6c1.9-0.9,1.7-2.7,2.6-4.1c0.4-0.6,0.7-1.3,1.1-1.9
		c0.6-0.8,1.3-1.6,1.8-2.5c1.3-2.3,2.5-4.6,3.8-6.9c0.2-0.3,0.4-0.7,0.7-0.8c1-0.5,1.4-1.3,1.5-2.5c0.1-0.9,0.7-1.7,1.1-2.6
		c0.5-1,1.1-2,1.6-3c1.1-2.2,2.1-4.3,3.2-6.5c1.8-3.8,4.9-7.1,5.4-11.6c0-0.3,0.2-0.5,0.4-0.7c1.9-3.6,4.2-7,5.7-10.8
		c2-5.2,4.7-10.1,6.4-15.4c0.7-2.3,2.2-4.7,0-7.6c1.1,0.4,1.7,0.6,2.6,0.9c0.3-1.6,2-2.6,0.7-4.3c3.1-0.7,3.1-0.7,3.4-4
		c0.1-1,0.5-2,1-2.9c0.7-1.3,1.4-2.5,0.3-4c-0.6-0.8-1-2.1,0.3-3.1c0.6,0.9,1.1,1.8,1.8,3.1c0.8-2,1.5-3.6,1.9-5.2
		c1-3.9,2-7.7,3.2-11.6c1-3.3,2.3-6.6,2.1-10.2c0-0.8,0.3-1.7,0.6-2.5c1.3-3.7,1.9-7.5,2.5-11.3c0-0.1-0.2-0.3-0.2-0.4
		c-0.6,0-1.2,0-2.3,0c0.9-1,1.3-1.9,1.9-2.1c1.5-0.6,1.8-1.8,2-3.1c0.1-0.7,0.3-1.5,0.4-2.2c0.9-3.8,2.3-7.5,1.8-11.6
		c0-0.2,0-0.6,0.2-0.7c1.4-0.8,0.8-2.2,0.8-3.3c0-2.1-1.2-4.2,0.3-6.3c0.2-0.3-0.1-1.1-0.1-1.6c0.1-1.9-1-3.8,0-5.8
		c0.3-0.7,0.1-1.9-0.4-2.5c-0.3-0.4-1.6-0.2-2.3,0c-1.6,0.5-3.2,1-4.8,0.4c0.8-2.7,1.7-3.4,4.3-3.8c1.8-0.3,2.4-0.9,2.4-2.7
		c0-1.9-0.2-3.8,0.2-5.6c0.3-1.5,0.3-2.8-0.3-4.1c-0.6-1.4-0.6-2.9-0.5-4.4c0.1-2,0.7-4.1-0.3-6.1c-0.9-1.9-1.7-3.9-2.4-5.9
		c-0.4-1.2-0.6-2.6-0.8-3.9c-0.2-1-0.2-2-0.4-3c-0.8-0.4-1.8,1.1-2.3-0.6c0.9-0.6,1.8-1.3,3-2.1c-0.7-0.5-1.1-0.7-1.5-1
		c1.6-4.3,1-10.2-3.2-11.8c-0.6-1.5-1.1-2.9-1.7-4.5c0.6,0.4,1.1,0.6,2.1,1.2c-0.3-1.9-0.1-3.5-0.8-4.5c-2-3.1-4.8-5.7-6.7-9
		c-0.3-0.5-1.2-0.8-2.1-1.3c1.7,3.1,1.7,3.3-1,3.7c-0.1-1-0.1-2-0.2-3.1c-2.9-1.7-4.3-4.5-5.4-7.6c-1.3-3.7-1.3-8-4.6-10.9
		c-0.1-0.1-0.3-0.3-0.3-0.5c0-1.9-1.5-3-2.4-4.3c-0.7-1.1-1.4-2.2-2-3.4c-2.1-3.5-3.6-7.2-3.5-11.4c0.1-2.6-2-4.4-2.4-6.8
		c-0.1-0.4-0.6-0.7-0.9-1.1c-2.1-2.6-4.1-5.1-6.2-7.7c-0.2-0.2-0.2-0.5-0.3-0.9c0.4-0.2,0.8-0.5,1.2-0.8c2,1.9,4.1,3.6,5.8,5.6
		c1.1,1.3,2.2,2.7,3.2,4c1.1,1.6,2.1,3.8,1.6,6.1c-0.1,0.6,0.2,1.4,0.5,2.1c1.5,3.7,3.1,7.3,4.8,10.9c0.5,1.2,0.1,3.2,2.4,3.1
		c0.2,0,0.5,0.5,0.5,0.7c-0.4,1.5,0.9,1.9,1.5,2.8c0.5,0.8,0.7,1.8,1.1,2.7c1.4,3.5,2.5,7,3.3,10.7c0.1,0.4,0.3,0.8,0.6,1
		c0.7,0.5,1.4,1.2,2.1,1.2c1.9-0.2,3.3,0.7,4.5,1.9c2.6,2.6,5,5.3,7.4,7.9c0.3,0.3,0.5,0.8,0.6,1.2c0.6,3.6,1.3,7.2,3.5,10.3
		c0.4,0.5,0.5,1.2,0.6,1.9c0.5,2,0.5,4,0.5,6.1c0,2.8,0.8,5.6,0.9,8.4c0.1,2.8,1.2,5.3,1.8,7.9c0.7,3,2.7,6,0.8,9.2
		c-0.1,0.2,0,0.6,0.1,0.8c1.3,2,1,4.2,0.8,6.3c-0.3,2.8,0,5.5,0.6,8.3c0.2,0.8,0.9,1.5,1.3,2.3c0.9-0.5,1.5-1.1,2.2-1.2
		c2.3,0,4.7-0.1,6.9,0.3c3.3,0.7,6.4,1.8,9.4,2.7c2-2.1,3.9-4,5.7-6c0.8-0.9,1.8-1.3,3-1.8c1.9-0.8,3.3,0.3,4.9,0.3
		c2.3,0.1,2.7,0.6,3,3.2c-0.5,0.3-0.9,0.6-1.6,1.1c-0.1-0.8-0.1-1.3-0.2-2.1c-1.9,0.2-3.7,0.5-6.1,0.7c-0.8,0.9-2,2.3-3.3,3.4
		c-1.9,1.6-2,3.5-1.6,5.6c0.2,1.2,0.3,2.4-0.4,3.5c-0.3,0.5-0.2,1.2-0.2,1.9c0,1.1,0,2.3,0.1,3.4c0.1,1.5,0.2,3,0.6,4.4
		c0.5,1.6,1.5,3.1,1.8,4.7c0.4,2.5,2.5,3.3,4.2,4.5c0.3,0.2,1,0.3,1.3,0.1c1.1-0.8,2.4-1.5,3.1-2.6c0.9-1.4,2.3-2.7,1.8-4.8
		c-0.3-1.1-0.3-2.3-0.5-3.4c-0.6-2.5-0.2-4.7,1.6-6.9c1.1,2.1,2.5,3.7,2.4,5.9c0,2.1-0.2,4.3-0.2,6.4c0,1.5,0,3,0,4.6
		c-1.9,1.2-3.6,2.6-5.5,3.4c-4,1.8-8.3,0.1-10.3-3.8c-0.7-1.3-1.5-2.6-2.2-3.9c-0.2-0.4-0.6-0.9-0.5-1.3c0.3-2.5-1.3-4.7-1.5-7.1
		c-0.1-1.9-0.1-3.8,0.1-5.6c0.3-2.1,0.4-2.4-1.5-3.4c-1.8-1-3.7-1.9-5.5-2.9c-0.2-0.1-0.5-0.2-0.8-0.3c-3.6,0-7.3,0-11,0
		c-0.1,0.7-0.4,1.3-0.3,1.8c0.3,2.9,0.9,5.8-0.4,8.6c-0.2,0.4,0.2,1.1,0.2,1.6c0.1,2.6,0.8,5.2-0.8,7.7c-0.4,0.7-0.8,1.6-0.7,2.4
		c0.6,3.3-1.4,6.2-1.2,9.4c0,0.3,0,0.6-0.1,0.8c-0.9,1.9-1,3.9-1.3,5.9c-0.3,1.9-1.3,3.6-1.8,5.5c-0.4,1.4-0.6,3-0.8,4.5
		c-0.3,3.8-0.8,7.5-2.5,11.1c-0.8,1.7-0.9,3.9-0.8,5.8c0.1,1.7,0.8,3.5,1.3,5.2c0.2,0.5,0.5,1,0.6,1.3c1.8-1.2,2.9-2,4.4-3
		c-0.5-2.2-0.2-4.9-1.7-7.3c-1.2-1.9-0.8-3.5,0.4-4.1c2-1,2.3,1.1,3.2,2c0.5,0.5,0.6,1.3,0.9,2c0.6,1.3,1.1,2.5,1.8,3.9
		c0.5-0.2,0.9-0.3,1.2-0.4c3.1-0.9,5.5,0.1,7.5,2.5c1.4,1.8,3.3,2.3,5.5,2.1c1.1-0.1,2.3-0.2,3.5-0.3c0.1-0.1,0.3-0.1,0.4-0.3
		c1.9-2.4,1.9-2.5,4.7-1.5c1.6,0.5,2.7,0,3.9-0.7c0.2-0.1,0.6-0.4,0.6-0.6c-0.2-2.4,2-2.8,3.1-4.1c0.8-0.9,1.3-2.2,1.7-3.4
		c0.2-0.9,0.5-1.5,1.4-1.9c1.1-0.5,2.2-1.1,3.3-1.6c0.8-0.4,1.7-0.9,2.6-1c3.1-0.4,6.2-0.7,9.2,0.4c0.4,0.2,1,0.5,1.3,0.4
		c2.5-1.3,4.7,0,7.2,0.8c0-0.7,0-1.2,0-1.8c1.5-0.1,2.2,0.9,3.1,1.7c6-0.8,11.9,0.6,18,0.9c-0.8-0.7-1.7-1.3-2.3-2.1
		c-0.9-1.2-1.1-2.9-2.9-3.2c-0.2,0-0.2-0.8-0.3-1.3c-0.4,0.4-0.7,0.6-1,0.8c-0.1-0.2-0.4-0.4-0.3-0.4c1.3-2.3-0.7-3.9-1.4-5.7
		c-0.7-1.8-2-3.4-3.2-5.2c-0.5,0-1.2-0.1-1.9-0.1c0.1-2.7-1.4-4.8-2.9-6.6c-2.1-2.5-4.8-4.4-7.3-6.6c-0.3-0.2-0.6-0.5-0.8-0.8
		c-1.3-2.9-3.7-4.9-5.6-7.3c-1.3-1.6-2.2-3.5-3.3-5.2c-0.8-1.2-1.5-2.4-2.3-3.5c-0.3-0.4-0.9-1-1.3-1c-2.1-0.1-2.7-1.6-2.9-3.3
		c-0.2-2-0.9-3.7-2.7-4.8c-0.5-0.3-0.9-0.7-1.2-0.9c0.5-1.8,0.9-3.2,1.3-4.6c0.5,0.6,1.3,1.2,1.5,1.9c0.9,2.5,1.7,5.1,2.6,7.9
		c0.4,0,1.1-0.1,1.7,0c1,0.3,2.4,0.5,3,1.3c2.2,2.7,4.7,5.3,6.1,8.4c1.5,3.3,4,5.7,6.3,8.2c2.6,2.9,5.9,5,7.9,8.5
		c0.8,1.3,1.9,2.5,2.9,3.7c0.8,1,1.7,2,2.5,3c1.9,2.4,2.3,5.9,5.3,7.5c0.3,0.1,0.3,0.7,0.5,1c1.6,2.6,3.1,5.4,4.9,7.9
		c0.8,1.1,2,2.2,3.2,2.5c1.6,0.4,3,0.7,4.1,2.1c0.4,0.4,1.1,0.7,1.8,0.8c2.3,0.4,4.6,0.7,6.9,1.1c1,1.1,1.8,2.6,3.1,3.2
		c2.7,1.2,5.1,2.7,7.5,4.4c1.2,0.9,1.7,1.6,1.4,2.9c0,0,0.1-0.2,0.1-0.2c-0.6-0.2-1.3-0.2-1.6-0.5c-1.1-1.3-2.4-2.2-4-2.7
		c-0.5-0.1-1.3-0.4-1.4-0.8c-0.7-2.3-3.2-1.2-4.5-2.5c-0.1-0.1-1,0.2-1.1,0.5c-0.2,0.3-0.1,1,0.2,1.2c0.4,0.4,1,0.6,1.5,0.6
		c0.8,0,1.2,0.3,1.4,1c0.1,0.5,0.5,1,1,1.3c2,1.5,4.1,3,6.2,4.5c1.1,0.8,2.5,1.5,3.3,2.6c1.5,2.1,3.4,3.2,6.2,3.7
		c-0.1,1,0.3,1.7,1.6,2.1c1.4,0.5,2.8,1.3,3.4,2.8c0.2,0.4,0.5,1,0.8,1.1c2.8,0.7,3.5,3.1,4.4,5.3c1.2,3.1,3.8,5.6,4.5,9
		c2.6,1.9,2.9,5.1,4.3,7.6c0.7,1.3,0.8,2.9,1.4,4.2c1.3,3.1,3.6,5.7,4,9.3c0.5,3.9,1.6,7.7,2.2,11.6c0.3,2.3,0.1,4.7-0.1,7
		c-0.3,5.3-2.5,10.2-3.6,15.3c-0.5,2.2-1.5,4.3-1.8,6.5c-0.6,4.5-1.3,8.9-2.8,13.2c-0.5,1.4-0.5,3-0.8,4.4c-0.4,1.6-0.9,3.2-1.4,4.8
		c-0.3,1.2-1.2,2.4-1,3.5c0.2,1.9-0.3,3.5-0.9,5.2c-0.8,2.5-1.5,5.1-2.3,7.5c-1,2.8-1.3,6-3.6,8.2c-1.6,1.7-2.2,3.8-3.1,5.8
		c-0.3,0.7-0.3,1.5-0.6,2.2c-1.7,2.9-3.4,5.8-5.2,8.7c-1.8,2.9-3.7,5.7-5.5,8.5c-2.7,4.4-5.1,9-10,11.4c-0.5,0.2-0.9,0.7-1.3,1.1
		c-2.2,2-4.3,4.1-6.6,6.1c-1.3,1.2-2.7,2.5-4.4,3c-4.1,1.3-7.1,4.1-10.4,6.7c-1,0.8-2.2,1.4-3.4,1.8c-1.4,0.5-2.9,0.7-4.3,1.1
		c-0.4,0.1-0.9,0.6-1.3,0.5c-3.3-0.7-6.3,0.9-9.5,1c-0.7,0-1.5,0.2-2.2,0.4c-5.1,1.6-10.1,3.4-15.3,4.9c-2.1,0.6-4.2,1-6.6,0.3
		c-3-1-6.3-0.9-9.4-1.6c-3-0.7-4.6,0.2-5.5,3.4c-0.8,2.8-4,4.2-6.1,3.1c-2.4-1.2-4.5-2.8-5-5.8c-0.2-1.1-0.7-2.2-0.8-3.3
		c-0.4-3.7-2.4-7.4,0.4-10.9c-0.2-1.6,1.2-1.8,2.1-2.4c-0.7-1.2-0.3-2,0.7-2.8c1.4-1.1,1.3-1.1,0.1-2.7c-0.6-0.7-0.7-1.8-0.9-2.8
		c-0.2-0.9,0-1.9-0.3-2.7c-0.4-1.2-1.1-2.4-1.7-3.5c-0.4-0.8-0.9-1.6-1.4-2.6c-4.4,2.1-8.5,3.9-12.5,5.9c-3.8,1.8-5.9,1.6-9-1.1
		c-0.2-0.2-0.4-0.4-0.6-0.6c-2.5-2.3-5.2-3.4-8.5-1.8c-0.7,0.3-1.3,0.7-2,1.1c-2.6,1.3-5.1,2.8-7.8,1.7c-2.8-3.8-5.4-7.3-8.3-11.2
		c-0.7,1.3-1.4,2.1-1.6,3c-0.5,2-1.8,3.3-3.2,4.5c-2,1.7-4.9,1.4-7-0.1c-2-1.5-3.3-3.7-5.1-5.4c-2.3-2.3-4.8-4.2-7.6-5.7
		c-0.3-0.2-0.8-0.1-1.9-0.2c0.7,1.3,1,2.3,1.6,3c1.4,1.5,2.9,2.9,4.3,4.4c0.8,0.8,0.7,2.1-0.1,2.8c-1,0.8-1.6,0.2-2.2-0.7
		c-0.6-0.8-1.3-1.6-2.1-2.3c-2.3-1.9-4.6-3.9-6.9-5.7c-1.7-1.3-2.8-3.4-5.2-3.4c-2.2,1.8-4.2,6.3-4.3,9.2c-0.1,1.5-0.5,2.9-0.7,4.4
		c-0.1,1.3-1,1.8-2,2c-2.7,0.7-5.5,0.3-8-0.4c-5.2-1.6-9.7-4.6-12.2-9.7c-0.3-0.5-0.7-1-1.1-1.7c-2.5,2.7-4.8,5.1-7,7.6
		c-1.5,1.6-3.1,3.2-4.5,4.9c-1.1,1.3-2.5,2.5-3,4c-0.5,1.5-1.4,2.6-2.4,3.7c-1.6,1.7-3,3.6-5.4,4.2c-0.2,0-0.5,0.3-0.6,0.5
		c-0.3,1.2-1.2,1.2-2.3,1.6c-1.4,0.5-2.9,0.4-4.4,1.2c-0.3-0.7-0.8-1.2-0.8-1.8c-0.3-2.6-0.4-5.2-2.5-7.2c-0.4-0.4-0.3-1.1-0.6-1.6
		c-1-1.6-1.9-3.3-3.2-4.6c-0.9-0.9-1.8-1.5-2-2.8c-0.2-1.3-1.1-2-2.4-1.9c-1.1,0.1-2.4,0.3-3.2,0.9c-2.6,1.8-5.1,3.8-7.5,5.8
		c-1,0.8-2,1.9-3.1,1.5c-1.9-0.6-4-0.3-5.7-0.8c-1.7-0.5-3-0.2-4.3,0.4c-2,0.8-3.9,1.9-5.8,2.9c-0.5,0.3-0.9,0.8-1.5,1.3
		c1.1,2.2,3.8,4.2,0.9,6.5c-0.9-0.8-1.9-1.4-2.6-2.4c-0.7-0.9-0.1-2.6-1.5-3.2c-0.3,0.3-0.6,0.5-0.9,0.8c0.3-4.8-0.6-6.9-3.1-7.1
		c-0.1-1-0.2-1.9-0.3-2.9c-2,2.5-2.5,5.5-4.5,7.8c-0.9,1-1.5,2-2.9,2.4c-1.4,0.4-2.5-0.2-3.5-1.3c-0.9,1.1-1.6,2-2.4,3
		c-0.5-0.7-0.9-1.1-1.3-1.6c-1.4,0.6-2.6,1-3.5-0.6c0.7-1.3,1.4-2.5,2.2-3.6c3.1-4.3,6.3-8.5,9.5-12.8c0.5-0.6,1.2-1,1.8-1.5
		c0.4-0.3,0.7-0.6,1.1-1c0.4-0.4,0.7-1.1,1.1-1.1c1.9-0.1,2.6-1.8,4-2.6c2-1.1,2.3-3.9,4.5-4.9c0.1,0,0.1-0.2,0.1-0.2
		c1.4-2.5,2.8-4.9,4.1-7.3c-1.2-1.8-1.4-3.8-0.2-5.3c0.9-1.2,2.1-2.2,3.3-3.3c0.6,0.9,1,1.4,1.6,2.2c1.4-1.5,2.5-2.8,2.6-4.7
		l-0.1,0.1c1.4-1.1,1.4-2.5,0.9-4.1c-0.4-1.3,0.2-2,1.3-2.3c0.1,0,0.3,0.6,0.5,0.9c-0.3,0.6-1,1.2-0.1,2c1.1-0.7,0.4-1.4,0-2
		c0.3-0.3,0.8-0.7,0.7-0.9c-1-3.3,1.1-4.8,3.4-6.2c-0.4-2.5,0.2-3.2,3.4-3.9c-0.2-0.5-0.4-1-0.6-1.5c1-1.1,2.6-1.8,2.1-3.7
		c0-0.1,0.4-0.3,0.5-0.6c0.3-0.7,0.5-1.5,0.7-2.2c0.1-0.2,0.1-0.7,0.2-0.7c2.1-0.1,1.2-1.9,1.8-2.9c0.5-0.9,0.1-2.8,2.1-2.3
		c0.1,0,0.4-0.2,0.4-0.2c-0.3-2.2,2.2-1.7,3-2.8c0-0.8,0.1-1.7,0-2.5c-0.1-0.8-0.1-1.4,0.8-1.8c0.3-0.2,0.1-1.4,0.2-1.9
		c0.8-0.6,1.6-1.1,2.4-1.6c0.2-0.1,0.4-0.2,0.5-0.3c0.2-0.5,0.2-1.1,0.4-1.6c0.2-0.6,0.6-1.1,1-1.7c1.2-2,1.9-4,0.6-6.3
		c-0.4-0.7-0.6-2-0.2-2.7c1.1-2,2.5-3.8,3.8-5.7c0.4-0.4,0.2-0.9,0.3-1.5c0.1-0.5,0.3-1.1,0.6-1.5c0.4-0.4,1.2-0.5,1.4-0.9
		c0.6-1.3,2.2-1.8,2.2-3.5c0-0.9,0.8-1.8,1.3-2.8c0.4,0.4,0.6,0.6,0.8,0.7c0.2,0.2,0.5,0.3,0.8,0.4c1.3-2.1-1.3-4.8,1.2-6.4
		c0.4,0.2,0.8,0.4,1.2,0.6c0.1-1.3,0-2.4,0.2-3.4c0.3-1.2,0.5-2.5,1.3-3.4c0.9-0.9,1.1-1.9,1.4-3c0.2-0.9,0.5-1.9,1-2.6
		c1.8-2.6,2.4-5.6,3-8.6c0.3-1.6,0.9-2.8,2.4-3.5c-0.2-0.7-0.4-1.3-0.6-1.9c2.6-1.8,3.7-4.2,3.4-7.3c-0.5,0-1,0.1-1.8,0.1
		c0.6-0.7,0.8-1.3,1.3-1.5c1.6-0.7,1.8-2.1,1.9-3.5c0.1-2.5,0.7-4.9-0.3-7.6c-0.9-2.4-0.7-5.2-1-7.8c0-0.5-0.2-1.1,0.1-1.4
		c2-2.9,2-6.8,4.6-9.4c0.2-0.2,0.3-0.8,0.1-1c-0.6-0.7,0.2-0.8,0.4-1.2c0.6-1.4,1.1-2.9,1.5-4.4c0.3-1.1-0.9-0.9-1.4-1.4
		c-0.2-0.2-0.3-0.5-0.3-0.8c-0.1-1.2-0.2-2.3-0.3-3.9c1.1,0.7,1.9,1.3,3,2c0.1-1.5,0.6-2.8,0.2-3.9c-0.6-1.9-1.1-3.7-0.2-5.6
		c0.2-0.4-0.1-0.9-0.1-1.4c-0.1-0.9-0.3-1.9-0.3-2.8c0.3-4.2,0.7-8.4,0.9-12.6c0.1-2.9,1.1-5.7,0-8.7c-1.2-3.3-2.3-6.7-2.3-10.3
		c0-0.6-0.5-1.2-0.7-1.8c-0.6-1.8-1.4-3.5-1.8-5.4c-0.6-2.6,0-5.4-1.9-7.7c-0.2-0.3-0.2-0.7-0.3-1.1c-0.5-2.5-0.9-5-1.4-7.6
		c0.3-0.2,0.7-0.4,1.1-0.8c-1.9-0.7-2.1-2.4-2.1-3.9c0-2.8-0.9-5.3-2.7-7.4c-0.9-1-1.4-2.2-2.8-3c-1-0.6-1.3-2.6-1.9-4
		c-0.2-0.3-0.4-0.6-0.6-0.9c-2.3-3.6-4.7-7.2-6.1-11.3c-0.5-1.4-1-2.8-0.6-4.4c0.3-1.2-0.2-2.5-0.3-3.5c-1.5-0.4-2.6-0.7-3.6-1.1
		c-0.9-0.4-1.7-1.4-2.7-1.6c-3.6-0.7-4.7-4.1-6.9-6.2c-1.2-1.1-1.8-2.7-2.5-4.2c-0.9-2-1.5-4.2-2.6-6.1c-1.6-2.9-2.4-6.3-4.7-8.8
		c-0.2-0.3-0.5-0.6-0.6-1c-0.4-1.4-1-2.6-2.3-3.5c-0.4-0.3-0.5-1-0.9-1.4c-0.7-1.1-1.2-2.4-2.4-3.3c-1-0.8-2-2-1.9-3.6
		c0-0.1-0.2-0.2-0.5-0.4c-0.1,0.6-0.2,1.1-0.2,1.2c-2.9,0-5.7,0-7.8,0c-1.2-0.9-1.9-1.4-2.6-1.8c-0.4-0.2-1.2-0.2-1.3-0.4
		c-0.6-1.6-2-1.4-3.2-1.5c-0.1-0.5-0.1-1-0.3-1.7c-1.7,1.4-4.4-1.3-5.5,1.9c-4,0-7.6,0.9-10.9,3.5c-2.1,1.6-4.8,2.2-7.4,2.3
		c-0.9,0.1-1.7-0.1-3-0.2c0.4-0.7,0.8-1.4,1.3-2c2-2.3,5.3-2.4,7.5-4.6c0.2,1,0.3,1.7,0.5,2.4c0.6-0.6,0.6-1.2,0.7-1.8
		c0.1-1,0.7-1.8,1.6-1.5c2.5,0.9,3.8-1,5.6-1.9c-3.3-2.5-3.5-2.9-3.8-6.7c0-0.3-0.2-0.5-0.4-0.8c0.3,0.3,0.5,1,0.8,1
		c1.7,0.1,3.5,0.2,5.3,0.2c0.1,2-2,1.5-2.8,2.5c1.7,1.4,2,1.4,4.9,0.7c-0.2-1.1-0.5-2.2-0.7-3.4c-0.5,0.1-1,0.2-1.4,0.3
		c-1.6-2-3.7-2-5.9-1.3c0.9-0.8,1.4-1.7,1-3.2c-0.5,0.6-0.9,0.9-1.3,1.4c-0.2-2.1-0.1-2.2-1.7-2.9c-1.6-0.7-3.2-1.3-5.2-2.1
		c0.1,1.2,0.1,1.9,0.2,2.7c-1-0.7-2.1-1.2-2.9-2c-2.1-2-5.1-2.4-7.3-4.2c-1.9,0.7-2.8-0.9-4-1.7c-1.1-0.8-2.2-1.6-3.6-2
		c-1.5-0.4-2.8-1.5-4-2.4c-2.1-1.5-4.6-2.2-6.7-3.7c-0.8-0.5-2-0.3-3-0.5c-0.2,0-0.3-0.2-0.5-0.3c0.3-0.3,0.7-0.6,1.1-1
		c-1.1-0.7-2-1.3-3.1-1.9c-1.1-0.6-2.3-1.1-3.4-1.7c0.1-0.2,0.2-0.3,0.2-0.5c3.2,0.9,6.3,1.9,9.1,3.9c1.3,0.9,2.6,1.8,4,2.4
		c2.5,1.1,5,2,7.6,2.9c3.3,1,6.2,3.3,9.9,2.9c0.5-0.1,1.2,0.5,1.6,1c1.6,1.5,3.6,2,5.6,2.4c0.6,0.1,1.3,0.1,1.9,0.3
		c4.8,1.7,9.8,2.3,14.9,2.8c1.5,0.1,2.3-0.2,3-1.6c-2.2-2.2-0.5-3.8,1.3-5.6c-1.5-2-2.9-4-4.3-6c-2.1-3-4-6.1-6.7-8.6
		c-3.4-3.1-6.7-6.3-10.1-9.4c-0.7-0.6-1.4-1.3-2-1.9c-0.8-0.8-1.3-1.9-2.2-2.4c-2.6-1.4-3.7-4.1-6.2-5.9c1.5-0.6,2.2-1.3,3.1,0.3
		c1,1.9,3.1,1.8,5.3,2.3c-1.1-1.5-1.9-2.7-2.9-3.8c-1.9-2.1-4.1-3.9-5.9-6c-2.9-3.6-5.7-7.2-9.6-9.7c-0.8-0.5-0.9-1.4-0.2-1.9
		c0.4-0.3,1.4-0.1,1.9,0.2c0.8,0.6,1.4,1.4,2,2.2c0.8,1,1.6,2,2.5,3c0.9,1,0.8,3,2.9,2.7c0.3,0,0.6,0.8,0.9,1.3
		c0.3,0.6,0.5,1.4,1,1.7c3.6,1.9,4.8,6.3,8.6,7.9c1.1,2.1,2.7,4,3.3,6.2c0.5,1.7,1.4,2.8,2.6,3.7c1.5,1.1,2.9,2.5,4.9,2.7
		c0.5,0.1,0.9,0.6,1.4,1c-0.5,0.5-0.9,0.8-1.4,1.2c2,2.2,4.4,3.9,7.1,5c1.9,0.8,3.1,2.3,4.4,3.7c1.5,1.5,2.8,3.1,4.2,4.7
		c0.7,0.8,1.3,2.1,2.2,2.4c1.2,0.5,2.1,0.8,2.3,2.2c0,0.1,0.2,0.3,0.4,0.3c1.4,0.7,2.6,1.5,3.8,2.6c0.8,0.8,2.7,0.5,3.3-0.4
		c0.7-1,0.4-1.7-1.1-2.7c-1-0.7-2-1.3-3.1-2c0.4-0.6,0.7-1.1,1-1.6l-0.1,0.1c1.3,0.8,2.6,1.5,4,2.3c0.8-0.9,0.8-0.9-0.9-3.6
		c0.6-0.2,1.2-0.5,1.7-0.7c0-1,0-1.8,0-2.6c-0.1-2.2,0.7-3.3,2.9-3.7c0.4-0.1,0.9,0,1.4,0c0.8-2.1,2.3-3.8,1.2-6.2
		c-0.3-0.6,0.2-1.6,0.5-2.4c0.6-1.7,1.6-3.2,1.9-4.9c0.3-1.9,0.3-3.9,0.1-5.9c-0.2-1.9,0.2-3.3,1.8-4.4c0.4-0.3,0.7-0.8,1-1.3
		c0.5-0.9,1-1.8,1.6-2.8c3.3,1.6,5.4-0.9,7.9-1.9c0.2-0.1,0.4-1.2,0.2-1.4c-1-1.2-2-2.4-3.2-3.4c-1.6-1.3-3.3-2.4-5.2-3.7
		c0.5-0.9,0.9-1.7,1.6-2.8c2.1,2.7,3.7,5.1,6.5,6.4c0.3,0.2,0.5,0.8,0.6,1.2c0.9,2.1,1.8,2.5,3.9,1.7c1.7-0.7,3.6-1.1,5.4-1.5
		c1-0.3,2-0.4,3.1-0.6c3.7-0.8,7.5-1.6,11.2-2.4c1.1-0.2,2.2-0.3,3.2-0.5c6.2-1.5,12.3-1.5,18.3,0.8c2.9,1.1,5.8,2.4,8.9,3.2
		c3,0.8,5.6,2.5,8.2,4c0.8,0.5,1.3,1.7,2,1.9c2.6,0.6,2.6,2.5,2.7,4.5c-1.3-0.6-2.3-1.5-3.5-2.1c-1.3-0.7-2.7-1.2-4-1.7l0.1,0.1
		c-0.1-0.3-0.2-0.8-0.5-0.9c-1-0.5-2-1-3-1.4c-1.1-0.4-2.3-0.8-3.4-1.1c-1-0.3-2.2-0.1-3-0.6c-2-1.3-4-2.3-6.4-2.7
		c-1.8-0.3-3.5-0.8-5.3-1c-1.4-0.2-2.8-0.1-4.2,0c-1.9,0.3-3.9,0.8-5.8,1.2c-3.5,0.7-7,1.5-10.5,2.1c-1.9,0.4-3.9,1-5.7,0.8
		c-2.5-0.3-4.4,0.8-6.3,1.9c-0.5,0.3-1,0.6-1.5,0.8c-1.9,0.6-4,1-4.7,3.4c-0.1,0.3-0.6,0.4-0.9,0.6c-2.3,2.3-4.6,4.5-3,8.3
		c0.5,1.3,0.4,2.5-0.5,4c-0.9,1.5-2.2,3.1-1.8,5.2c0.1,0.4-0.2,0.9-0.4,1.3c-1.2,3.3-1.4,7-3.4,10.1c-0.1,0.1-0.1,0.4-0.1,0.6
		c0.3,2.8-0.8,5.9,1.1,8.5c0.2,0.3,0,0.9,0,1.4c0,0.6,0.2,1.2,0.3,1.8c0.1,0.6,0.2,1.2,0.1,1.8c-0.1,0.8-0.5,1.6-0.7,2.4
		c0.9,1,1.8,2,2.6,3c1.2-0.2,2.5-0.4,3.8-0.5c-0.4,2.6-0.4,2.6,1.7,3.8c0.4,0.2,0.8,0.5,1.2,0.8c1.9,1.1,3.3,3.2,6,2.6
		c0.5-0.1,1.1,0.6,1.7,0.9c2.1,1.1,3.5,3.2,5.7,4.2c1.1,0.5,2.1,1,2.8,1.3c1.9-0.4,3.5-1.4,4.9-1c2.6,0.6,4.6,0.4,6-2
		c1.6,0.8,1.1,2.2,1.2,3.6c1.6-0.9,2.6-3.5,4.5-1.1c-0.1,0.6-0.2,1.1-0.2,1.5c1.6-0.3,3-0.6,4.5-0.8c0-0.4,0.1-1,0.1-1.9
		c1,0.3,2.1-0.9,3,0.7c-0.8,0.5-2.6-0.6-2.2,1.5c0.8,0.3,1.6,0.6,2.5,0.9c0.9,0.3,1.7,0.1,2.1-0.9c0,0,0,0,0-0.1
		c0.9,1.8-0.1,3-1.3,4c-1.7,0-3.3,0.1-4.8,0c-2-0.2-4-0.4-5.8-1c-1.8-0.6-3.4-1-5-0.1c-1.5-0.9-2.4-3-4.6-1.4
		c0.7,1.4,1.4,2.9-0.2,4.3c-1-0.8-2-1.6-3-2.3c-0.3-0.2-0.9-0.4-1.3-0.3c-1.8,0.6-3.9-1.1-5.4,1c-3.1-0.3-5.6,2.3-8.7,2
		c-0.2,0-0.6,0.2-0.7,0.4c-0.5,1-1.1,0.6-1.9,0.4c-1-0.2-2.1-0.4-3-0.1c-0.8,0.3-1.4,1.2-1.9,1.8c-0.7-0.4-1.4-0.8-2-1.2
		c-0.5-0.3-1.5-0.3-1.1-1.3C585.2,432.1,586.5,432.6,587.2,432.2z M583.5,428.4c0-1.5-0.5-2-1.8-1.7c0.2-0.6,0.5-1.2,0.7-1.9
		c-0.7-0.5-1.2-0.9-2.1-1.5c-0.2,1.2-0.4,2.2-0.7,3.5c0.9-0.1,1.5-0.1,2.1-0.2C581.3,428.2,582.4,428.1,583.5,428.4z M796,645.6
		c-0.8-0.3-1.8-1.1-2.3,0.8c2.8,0.4,3.5,3.4,5.5,4.9c1.1,0.8,2,1.9,2.7,3.3c0.8,1.7,2.7,3,4.1,4.4c0.3,0.2,0.8,0.2,1.7,0.4
		c-1.4-2-2.6-3.6-3.7-5.2c-0.6-0.8-1-1.7-1.5-2.6c1.1-1,2.3-2,0.6-4.1c1.4,0.3,2.2,0.5,2.8,0.6c-0.4,1-0.7,1.9-1.1,3.1
		c3.1-1,4.1-0.7,5,1.3c0.8,1.9,0.6,2.3-2.1,3.6c4.3,6.6,8.4,13.3,9.9,21.2c-2.9-2.2-2.3-6.5-5.4-8.6c-0.6,2.6,1.5,4.2,2.2,6.2
		c0.7,2,1.7,3.9,2.8,6.3c0.3-1,0.5-1.7,0.7-2.3c0.6,2.6,2.3,4.9,1.4,7.8c-0.5,1.7,0.5,3.7,0.4,5.5c-0.2,3.7-0.8,7.4-1,11.2
		c-0.2,2.9-0.6,5.9,0.1,8.6c1.1,4.6-0.2,9-0.7,13.4c-0.2,2-0.9,3.9-1.4,5.8c-0.2,0.7-0.5,1.4-0.8,2.1c-0.2,0.5-0.6,0.9-0.8,1.5
		c-1.2,4.4-2.3,8.8-3.6,13.2c-0.6,1.9-1.4,3.8-2,5.7c-0.7,1.9-1.3,3.9-2,5.9c-0.3,0.9-0.1,2.1-1.4,2.5c-0.2,0-0.3,0.5-0.3,0.7
		c0.2,3.9-2,7.1-3.4,10.5c-0.5,1.2-1.1,2.4-1.8,3.5c-1.2,1.8-2.5,3.5-3.8,5.2c-0.7,0.8-1.4,1.6-0.7,2.8c2,0.1,2.1,0.1,4.7-1.6
		c0.8,1.2,1.9,1.4,3.3,0.9c1.8-0.7,3.7-1.1,5.6-1.8c1.2-0.5,2.5-1,3.5-1.8c2.6-2.2,5.4-3.9,8.6-5.2c1.9-0.7,3.3-2.4,4.9-3.7
		c2.9-2.3,5.9-4.4,8.6-6.9c1.6-1.4,2.7-3.3,4-5c2-2.7,4.3-5.3,5.9-8.2c1.4-2.5,2.9-5,4.3-7.5c2.9-5.3,5.8-10.6,8.4-16
		c1.4-2.9,2.3-5.9,3.2-9c1-3.4,2.1-6.8,2.7-10.3c0.5-2.7,1.1-5.4,2.1-8c0.5-1.2,0.3-2.6,0.6-3.8c0.2-1,0.7-1.9,0.9-2.9
		c0.7-2.8,1.3-5.7,1.9-8.6c1-4.3,2-8.6,2.9-12.9c0.9-3.9,1.7-7.9,2.5-11.9c0.1-0.6,0-1.3-0.1-1.9c-0.6-2.8-1.4-5.6-2-8.5
		c-0.6-3.1-1.4-6.2-1.6-9.4c-0.1-1.6-0.8-2.9-1.6-4.1c-1.2-1.8-1.8-3.5-1.8-5.4c-0.6-1.2-1.1-2.5-1.7-3.6c-0.3-0.6-0.8-1.3-1.3-1.8
		c-0.8-0.7-2.2-1-1.4-2.6c0.1-0.1-0.2-0.5-0.5-0.6c-1.6-0.8-1.7-2.3-1.8-3.9c-1.9-0.6-2.8-2-3.6-3.7c-0.7-1.4-2-2.4-3-3.6
		c-0.9-1-1.7-1.9-2.6-2.9c-0.5-0.5-0.9-1-1.4-1.3c-3.5-2.3-7-4.4-10.4-6.7c-1.5-1-2.6-2.4-4.4-3c-0.6-0.2-1.3-0.9-1.5-1.6
		c-1-2.6-3-4.3-5.4-5.5c-0.4-0.2-0.6-0.7-0.9-1c-3,1-3.2,0.9-4.7-2.9c-0.8,0.8-1.5,1.4-2.1,2.1c-0.6-0.4-1.3-1.1-2-1.1
		c-1.4,0-2.3-0.4-2.9-1.7c-0.2-0.4-1.5-0.8-1.9-0.6c-1.2,0.8-2.7,1.1-3.5,2.7c-0.9,1.8-2.6,3.1-3.7,4.7c-2.4,3.3-4.8,6.6-7,10
		c-1.3,2-3,3.4-5,4.5c-1.4,0.8-1.7,1.8-1.6,3.3c0.2,3.1-0.4,6-2.5,8.4c-0.6,0.7-0.7,1.7-1.1,2.7c-2.5-1-2.2,2.6-4.4,3
		c0.4-0.7,0.6-1,0.8-1.3c-1.4-0.9-2.7-1.8-4.1-2.7c-0.3,0.5-0.6,0.9-0.9,1.3c-0.3-0.1-0.5-0.1-0.6-0.2c-0.8-1.1-1.9-2.1-2.3-3.4
		c-0.6-1.8-0.9-3.8-1-5.8c-0.1-1.6,0.3-3.2,0.5-4.7c0.1-1,0-1.7-1-2.1c-0.4-0.1-1.1,0-1.2,0.2c-0.4,0.8-0.9,1.8-0.7,2.5
		c1.4,4.1,0.7,8.1,0.3,12.6c0.9,1.2,2.2,2.8,3.5,4.4c0.2,0.2,0.4,0.4,0.5,0.7c0.6,2.2,1.2,4.5,1.9,6.7c0.5,1.4,1,2.9,1.7,4.2
		c0.7,1.4,1.7,2.7,2.5,4.1c0.4,0.6,0.8,1.2,1.4,1.8c1.3,1.3,1.6,3.7,0.6,5c-0.3,0.4-1.1,0.5-1.7,0.7c0.3,3.3,0.3,3.3-3,4.5
		c-0.1-1.1-0.1-1.1,1.3-1.7c-1.5-2.2-0.5-4.2,0.5-6.5c-1.1-0.2-2.1-0.5-3.4-0.8c0.1-0.4,0.2-0.7,0.4-1.1c0.2-0.3,0.4-0.6,0.6-0.9
		c-0.1-0.3,0-0.5-0.1-0.6c-1.5-2.6-3-5.2-4.6-7.8c-0.2-0.4-0.4-0.9-0.8-1.2c-1.2-1.2-1.9-2.6-2-4.4c-0.1-0.9-0.6-1.7-1-2.5
		c-0.2-0.6-0.4-1.2-0.6-1.8c-0.3-0.6-0.6-1.6-1-1.7c-1.4-0.3-1.9-1.4-2.7-2.3c-1.4-1.4-2.7-2.7-4.8-3.2c-1.4-0.4-2.6-1.3-4-2.1
		c-1.3,1.4-2.4,2.7-3.8,4.3c-1.9-1-3.8-1.9-5.8-2.9c-0.5,0.4-1.1,0.9-1.7,1.2c-2.4,1.5-4.7,3.1-3.2,6.5c-1.1,0.4-2.2,0.5-2.6,1.1
		c-0.5,0.7-0.4,1.8-0.6,2.7c-0.9,4.6-0.8,9.3-2.4,13.8c-1.2,3.3-3.2,5.6-6.8,6.4c-5.6,1.2-11.1,0.8-16.1-2c-1.4-0.8-2.6-2.1-3.6-3.5
		c-1-1.3-2.6-2.3-2.2-4.4c0.5-2.7,0.6-5.5,2.4-7.7c0.7-0.8,1.1-1.5,1.3-2.6c0.2-1.4,1.2-2.7,2.2-3.8c1.2-1.4,2.6-2.6,4-3.9
		c2.4-2.2,4.7-4.7,7.4-6.5c1.1-0.8,2.5-1.4,3.7-2.3c0.1-0.1,0.2-0.1,0.2-0.1c2.9-0.6,5.6,0.1,8.2,1.2c1.5,0.7,2.6,2.1,3.9,3.1
		c0.2,0.2,0.5,0.2,0.7,0.3c2.6-1.7,2.7-2.4,0.8-4.6c-1.2-1.3-2.4-2.6-3.7-3.8c-0.3-0.3-1-0.5-1.5-0.4c-2.1,0.3-2.6,0.2-3.6-1.5
		c-0.5-0.9-1.3-1.7-1.7-2.6c-1-2.3-2.8-3.2-5-3.7c-0.4-0.1-0.9-0.3-1.4-0.2c-3.6,0.6-3.6,0.6-5-2.4c-0.1-0.2-0.3-0.4-0.6-0.9
		c-0.3,0.5-0.6,0.8-0.7,1.2c-0.8,2.2-1.6,4.4-2.4,6.6c-0.9,2.5-1.7,5.1-2.6,7.6c-0.6,1.7-1.2,3.4-1.9,5c-0.8,2.2-1.7,4.4-2.5,6.6
		c-0.1,0.3-0.1,0.6-0.3,0.8c-2,1.8-2.3,4.4-3.3,6.7c-2.4,5.5-4.7,11.1-7.3,16.5c-3,6.2-6.3,12.2-9.4,18.4c-0.9,1.7-1.5,3.5-2.3,5.1
		c-2.7,5.1-5.4,10.1-8.1,15.2c-0.4,0.7-0.5,1.6-1,2.3c-0.8,1.5-1.7,2.9-2.6,4.3c-0.6,1.1-1.1,2.3-1.8,3.4c-1.7,2.8-3.5,5.6-5.3,8.3
		c-0.8,1.2-2.1,2.2-3,3.3c-1.5,1.7-3,3.5-4.5,5.3c-0.2,0.2-0.2,0.6-0.4,0.7c-2.6,1.4-4.1,3.9-5.9,6c-2.3,2.5-4.1,5.3-6.4,7.8
		c-2.3,2.5-3.9,5.7-6.8,7.8c-0.2,0.2-0.4,0.4-0.5,0.6c-2.5,4.6-6.4,8-9.7,11.9c-0.8,1-1.6,2.1-2.3,3.1c3.1,7.2,10.2,12.3,15.5,11.2
		c0.4-3.3,1.1-6.4,2.9-9.3c1.7-2.7,1.6-5.8-0.1-8.7c-0.1-0.2-0.3-0.5-0.6-0.6c-0.2-0.1-0.5-0.2-0.8-0.3c-0.5,0.9-1.1,1.7-1.7,2.7
		c-1.5-1.9-1.4-3.8-1-5.6c0.2-0.8,1.2-1.9,2-2c1.3-0.3,2.7,0.2,3.5,1.3c1.1,1.5,2.2,3.1,3.4,4.8c0.5,0,1.1,0.1,1.8,0.1
		c4.5-0.1,8,2.5,11.9,4.1c0.5,0.2,1,0.6,1.5,0.7c3.2,0.6,5.7,2.4,8,4.5c2.2,2,4.4,4,6.6,6.1c1.2-0.4,2-1.1,2.6-2.4
		c0.7-1.5,1.8-2.9,3-4c2-1.9,4-1.9,6.1-0.1c1.2,1,2.3,2.3,3.2,3.5c1.4,1.8,2.6,3.7,4,5.8c2.7-2.6,6.1-2.7,9.3-3.2
		c3.5-0.5,6.3,0.9,8.8,3.1c2.4,2.2,3.7,2.4,6.6,1c3.4-1.6,6.8-3.2,10.3-4.6c2.9-1.2,6.1,0.1,7.6,2.9c0.7,1.4,1.5,2.7,3,3.6
		c2.1,1.3,2.7,4.1,1.7,6.4c-0.8,1.8,0.7,3,0.7,4.6c1.6,0.5,3.1,1.2,4.6,1.5c1.9,0.5,3.5,1.5,4.5,3.1c1.9,2.8,3.8,5.6,4.6,9.2
		c4.1,0.9,8,2,12.1,0c2-1,4.2-1.7,6.4-2c4.5-0.5,7.7-2.8,10.2-6.4c2-2.9,4.6-5.4,5.7-8.9c1-2.8,2.2-5.6,3.2-8.5
		c0.9-2.7,1.8-5.4,2.6-8c1.6-5,3.3-10,4.9-15c1.5-4.8,2.3-9.7,4.2-14.3c1.9-4.5,2-9.1,1.8-13.8c-0.1-2-0.1-4-0.2-6.5
		c-1,0.8-1.6,1.2-2.7,2c0.7-2.9,1.2-5.1,1.7-7.3c0.2-0.8,0.4-1.7,0.4-2.5c0-1.6-0.4-3.2,0.7-4.6c0.2-0.3,0.2-1,0-1.4
		c-1.1-2.5-0.4-5.4-1.5-7.8c-2.3-5.3-3.6-10.9-6.8-15.9c-2.7-4.2-5.1-8.5-8.2-12.4c-0.5-0.6-0.8-1.3-1-2c-0.4-1.2-0.7-2.5-2.2-2.8
		c-0.1,0-0.3-0.3-0.3-0.4c-0.4-3.2-4.2-3.7-5.4-6.4c-0.5-1.1-2.1-1.6-3.3-2.4c2-2,2.7-2.3,4.6-1.4c2.2,1.2,4.4,2.5,6.5,3.9
		c0.5,0.3,0.7,1.2,1.1,1.8l0.1-0.1C798.4,647.1,797.3,646.1,796,645.6z M574.7,424.9c1.1-0.6,1.1-1.3,0.5-2.2c1-1.5,1.5-4.1,1.3-7.6
		c-0.6,1.7-1,3-1.5,4.3c-0.5,1.5-0.5,1.5-2.4,1.3c-0.1-1.1-0.2-2.3-0.3-3.5c0.9-1,2-2.1,1-4c-0.8-1.6,0.7-1.7,1.8-1.6
		c0.2-1.4-0.6-1.9-1.5-2.2c-0.9-0.3-1.8-0.5-2.6-0.8c-0.3,1.5-1.6,1.2-2.8,1.4c0.9,2.4,3.6,3.8,3.1,6.8c-0.9,0.2-1.7,0.4-2.8,0.6
		c-1.2-2.3-2.4-4.6-3.6-7c-1.5,1.4-0.6,3-0.8,4.5c-0.8-0.2-1.6-0.6-2.1-0.4c-1.1,0.4-2.3,1-3.1,1.9c-1,1.1,0.8,1.3,1.1,2.3
		c-0.6,0.1-1.1,0.2-1.6,0.4c0.3,2.8,0.3,2.7-2.5,3.9c-0.5,0.2-1,0.7-2,1.6c4.3,0.3,6.8,3.7,10.8,3.4c0.5-1.2-1.3-2.3-0.3-3.7
		c0.8-1,1.5-2.2,2.3-3.4c1.7,0.2,2,0.5,3.2,3c1.9,0.1,3.7-0.2,5.3-1.2C575.1,423.4,574.9,424.1,574.7,424.9z M736.8,637.9
		c0.7-3.5,1.3-7.1,2-10.6c0.3-1.6,1-3.1,1.3-4.6c0.2-1.1,0.5-2.2-0.9-3c-0.7-0.4-1.4-1.5-1.4-2.2c0-2-1.3-2.8-2.8-2.9
		c-1.6-0.2-3.4-0.2-4.6,1.4c-1.8,2.3-4.7,3.5-5.8,6.4c-0.1,0.1-0.3,0.3-0.4,0.3c-3,0.7-4,3.4-5.6,5.5c-0.8,1-1.9,1.9-2.4,3.1
		c-2.4,5.9-0.6,9.3,5,11.7c2.4,1,5.3,1.1,7.9,1.6C733.7,644.2,735.9,642.3,736.8,637.9z M804.6,588.8c0.5-0.5,0.9-1.4,1.5-1.5
		c1.5-0.4,2.1-1.5,2.7-3c-2.4-0.3-4.6-0.6-6.9-0.7c-2.2-0.1-4.5,0-7.2,0c-0.2-0.2-0.6-0.9-1.2-1.3c-0.8-0.5-1.8-1-2.7-1
		c-2.1,0.1-4.3,0.4-6.4,0.7c-0.6,0.1-1.2,0.5-1.8,0.8c-0.8,0.3-1.5,1-2.3,1c-2.5,0.1-3.7,2.1-6.1,3.3c4.2,1.5,7.9,0.4,11.6,0.2
		c0.2-0.4,0.4-0.9,0.6-1.2c3-0.2,5.9-0.4,8.8-0.5c1.3,0,2.6,0.4,3.9,0.8c1.6,0.6,1.8,1.2,1.2,3.5c-3.3-0.2-6.6-0.4-9.7-0.5
		c-0.8,2.1-1.6,3.9-2,5.7c-0.2,1.1,0.1,2.4,0.5,3.5c0.4,0.9,1.4,0.8,2.2,0.4c1.8-0.8,3.6-1.6,5.4-2.3c0.6-0.2,1.2-0.3,2.1-0.6
		c-0.1,1.2-0.1,2.2-0.2,3.8c2-2.1,4-3.5,4.9-6.6c-1,0.3-1.6,0.5-2.3,0.8c0-0.3-0.1-0.6,0-0.7c0.6-0.9,1.7-1.6,1.1-2.6
		C803.4,589.9,804,589.4,804.6,588.8z M748.7,782.1c-0.8-0.6-1.4-1.1-2-1.5c-0.3,0.2-0.5,0.3-0.5,0.4c-0.1,0.8-0.2,1.6-0.4,2.5
		c-0.1,0.7-0.4,1.5-0.3,2.2c0.9,3.9,0.8,8.2,3.4,11.6c0.4,0.6,1.4,1.1,2.1,1.1c0.4,0,1-1,1.2-1.7c0.5-1.5,0.8-3,0.5-4.7
		c-0.2-1.5,0.3-3.2,0.5-5.1c0.6,0.1,1.6,0.2,2.5,0.3c1.2-2,1.2-2.4,0-3.7c-1.2-1.4-2.5-2.8-3.7-4.2c-0.9-1-1.8-2.1-3.6-1
		C748.5,779.5,748.6,780.6,748.7,782.1z M765.5,607.1c1.3,4.2,4.1,7,7.6,10c0.2-4.2,0.7-7.8-1.7-11.1
		C769.5,606.9,767.1,604.8,765.5,607.1z M788.7,608.5c-0.4-1.1-0.9-2.2-1.5-3.7c-1.9-1.1-3.7,0.5-5.7,1c0.2,3.1,2,5.1,4.2,7
		C788.7,611.3,789.4,610.3,788.7,608.5z M787.3,598.7c-0.2-0.6-0.5-1.3-0.6-2c-0.1-0.7,0-1.4,0.2-2.1c0.1-0.5,0.5-1,0.5-1.5
		c0.1-3.1-1.1-4.1-4.1-3.4c-0.6,0.1-1.2,0.5-1.9,0.8c2.8,2.7,1.4,5.9,1.5,9C784.6,600.5,785.9,600,787.3,598.7z M765.5,595.2
		c-0.5,0.9-2,1.2-3.3,1.9c-0.3,0.8,0,1.6,1.1,1.9c1.5,0.4,3.1,0.8,4.7,1c1.2,0.2,2.2-0.5,2.3-1.6c0.1-1.7,0.3-3.6-1.1-5.2
		C767.7,593.5,766.4,593.6,765.5,595.2z M595.6,429.1c0.1,0.9,0.2,1.8,0.2,3c1.2-0.3,2.3-0.5,3.3-0.9c1.2-0.4,2.4-0.9,3.6-1.5
		c1.1-0.5,1.7-1.4,1.8-3.1c-0.7,0.5-1.2,0.9-1.7,1.2c-1.5-0.8-3-1.6-4.5-2.5c-1.2-0.7-2.1,0.1-3.2,0.4
		C595.4,427,595.5,428.1,595.6,429.1z M589.2,429.5c0.8,0.3,1.9,0.7,3.1,1.1c1.5-1.7,0.3-3.4-0.2-4.9c-0.4-1.2-1.1-2.4-1.9-3.3
		c-0.8-0.9-1.9-1.6-3-2.2c-0.2-0.1-1.1,0.4-1.2,0.7c-0.1,0.8,0.1,1.7,0.1,2.7C589.8,424.3,588,427.4,589.2,429.5z M550.9,421.9
		c0.3,0.2,0.8,0.4,1.3,0.8c-0.3,0.5-0.6,0.9-0.9,1.4c0.2,0,0.5,0.1,0.5,0c1.1-1.6,2.7-2.5,4-3.8c0.4-0.4,0.8-1.4,0.7-1.9
		c-0.2-0.9-1.1-1.1-2.1-1c-1.1,0.2-2.2,0.3-3.3,0.4C551.1,419.2,551,420.5,550.9,421.9z M780.1,599.5c0.3-1,0.5-2,0.5-3
		c-0.2-3-1.1-4-4-4.7c-0.7,3,2,5.2,1.9,8.4C779.4,599.9,780.1,599.8,780.1,599.5z M582.8,416.8c1.6-0.2,2.9,2.2,4.5,0.4
		c-0.6-2.8-1.7-3.4-5.7-2.8c-0.9,3.1,1.6,5.1,2.4,8.1C585.3,420,582.8,418.8,582.8,416.8z M552,392c-0.1,1.1-0.3,1.7-0.1,1.8
		c1.8,1.4,2.7,3.4,3.9,5.2c1.1,1.7,2.5,3.2,3.8,4.8c0.2,0.2,0.6,0.2,0.9,0.3c0.2-0.2,0.3-0.3,0.5-0.5
		C558.1,399.9,555.2,396.2,552,392z M578.2,392.7c-1.1,0.1-2.1,0.1-3.2,0.2c0.3,2.3,0,4.6,2.5,6.2
		C578.2,396.8,578.7,394.9,578.2,392.7z M773.4,582.1c0.7,0.3,1.7,1,2,0.8c1.4-0.9,3.7,0,4.5-2.3
		C777.3,578.8,775.6,580.9,773.4,582.1z M763.8,608.1c-0.2-0.6-1-1.2-1.5-1.2c-0.5,0-1.3,0.7-1.5,1.2c-0.2,0.4,0.1,1.3,0.5,1.6
		c0.6,0.5,1.4,0.8,2.6,1.4C763.9,609.7,764.1,608.8,763.8,608.1z M789.4,604.5c-0.2,0.8-0.4,1.6-0.6,2.7c3.1,0.5,3.4-2.7,5.4-3.2
		c-0.1-0.2-0.3-0.4-0.4-0.6C792.4,603.7,790.9,604.1,789.4,604.5z M580.1,410.7c1.3-0.6,1.7-1.8,1.5-3.4c-0.8-0.2-1.5-0.5-2.4-0.7
		C578.5,408.4,578.3,409.8,580.1,410.7z M579.4,403.5c-0.1,0.5,1,1.3,1.8,2.3c0.9-2.4,0.2-4.3-0.4-6.2
		C580.4,400.8,579.6,402.1,579.4,403.5z M753.8,615.1c0.4,0.3,1.2,0,1.8,0c-0.1-0.6,0-1.4-0.3-1.7c-0.8-0.7-1.8-1.1-2.9-1.7
		C752,613.5,752.7,614.5,753.8,615.1z M759.5,601.3c-1.3,0.3-2.3,0.8-1.7,2.6c1.3,0.4,2.1-0.8,3.2-0.9
		C761.1,601.5,760.6,601.1,759.5,601.3z M620.5,603.5c1.6-1.8,1.3-3.5,0.9-5.8C619.9,599.7,619.8,601.4,620.5,603.5z M592.3,676.8
		c0.3,0.4,0.6,0.7,1,1.3c0.7-1.2,1.9-1.8,1.6-4C593.8,675.3,593.1,676,592.3,676.8z M586.6,376.7c1-2.5,1-2.9-1.1-4.1
		C585.9,374.3,584.9,375.7,586.6,376.7z M751.8,599.6c0.2-1.6-0.5-2.3-2.1-2.6C750,599.1,750,599.1,751.8,599.6z M808.3,660.7
		c-0.4,1.9-0.4,1.9,1.3,3.4c0.2-0.1,0.3-0.2,0.5-0.4C809.6,662.8,809.1,661.9,808.3,660.7z M737.3,592.5c0.7,0.6,1.4,1.2,2.1,1.8
		c0.2-0.2,0.3-0.3,0.5-0.5C739.5,592.6,738.9,591.9,737.3,592.5z M747.8,601.3c-0.4,1.5,0.1,2.3,1.5,2.4c0.2-0.2,0.4-0.4,0.6-0.6
		C749.2,602.5,748.6,601.9,747.8,601.3z M597.1,669.2c0.5-0.1,1,0,1-0.1c0.2-0.6,0.2-1.2,0.4-1.8c-0.1-0.1-0.3-0.1-0.4-0.2
		C597.7,667.7,597.4,668.4,597.1,669.2z M579.1,710.2c0.2,0,0.5-0.4,0.5-0.5c-0.1-0.3-0.3-0.5-0.5-0.8c-0.2,0.2-0.4,0.3-1.1,1
		C578.4,710,578.8,710.2,579.1,710.2z M754.2,602.2c0-0.1-0.4-0.5-0.5-0.4c-0.3,0.1-0.5,0.3-0.7,0.6c0,0,0.3,0.4,0.5,0.7
		C753.9,602.7,754.1,602.5,754.2,602.2z M745.8,598.9c0,0-0.1,0.5-0.2,0.7c0.5,0.1,1,0.2,1.4,0.3c0-0.2,0.1-0.5,0.1-0.7
		C746.7,599.1,746.3,599,745.8,598.9z M748.7,611c0,0.1,0.3,0,0.5,0c-0.1-0.4-0.1-0.8-0.2-1.2c-0.2,0-0.5,0.1-0.7,0.1
		C748.4,610.3,748.5,610.7,748.7,611z M575.4,406.3c-0.2,0.1-0.4,0.1-0.6,0.2c0.1,0.3,0.3,0.7,0.4,1c0.1,0,0.3-0.1,0.4-0.1
		C575.5,407,575.5,406.7,575.4,406.3z M754.9,606.8c0.2-0.2,0.7-0.4,0.6-0.6c-0.1-0.3-0.4-0.6-0.6-0.7c-0.1-0.1-0.4,0.2-0.7,0.4
		C754.5,606.2,754.7,606.5,754.9,606.8z M779.6,616.3c0,0.2,0.3,0.3,0.5,0.4c0.1-0.2,0.3-0.3,0.2-0.5c0-0.2-0.2-0.4-0.3-0.8
		C779.8,615.9,779.6,616.1,779.6,616.3z"/>
	<path class="st0" d="M247.6,753.1c-0.9-0.1-2.3,0.2-2.6-0.3c-1.1-1.5-2.9-1.6-4.3-2.3c-0.5-3.4-3.5-5.6-3.8-9
		c-0.2-2.6-2.5-4.3-3-6.9c-0.4-1.7-1.7-3.2-2.2-4.8c-0.6-1.9-0.8-3.9-1.2-5.8c-1.5-7.1-2.6-14.2-1.4-21.5c0.1-0.5,0.1-1.1,0-1.7
		c-0.3-1.7-1-3.4-1-5.2c0-1.9,0.7-3.7,0.8-5.6c0.1-3.2-0.1-6.4,0.1-9.6c0.1-2.8,0.4-5.6,0.7-8.4c0.2-1.5,1.3-2.9,1.2-4.3
		c-0.2-2.3,0.9-4.2,1.5-6.2c1.2-4.2,2.9-8.3,4.4-12.5c0.5-1.4,0.7-3.1,1.5-4.3c1.7-2.4,1.4-5,1.4-7.6c0-0.7-0.1-1.7,0.3-2.2
		c1.8-2.4,1.7-5.1,1.6-7.8c0-0.8-0.1-1.8,0.3-2.5c2.2-4.2,3-8.8,4.5-13.3c1.1-3.5,1.2-7.5,4.3-10.2c0.1-0.1,0.2-0.3,0.3-0.5
		c0.9-3.4,3.1-6.1,4.8-9.2c-0.5-0.9-1.7-1.5-0.9-3.2c0.5,0.6,1,1,1.3,1.4c2.6-2.8,4.2-6.3,7.6-8.4c1-0.6,2-1.2,2.7-2
		c1.5-1.8,3.7-2.6,5.7-2.6c3.4,0.1,6.4-1.2,9.9-2.2c-1.6-1.2-2-2.7-1.9-4.3c0-0.4-0.2-0.7-0.3-1.1c-0.6-4.5-1.2-9.1-1.8-13.7
		c0-0.2,0-0.4,0.1-0.6c0.8-3,0.1-6,0.3-9c0.1-0.9,0.1-1.9,0.1-2.8c0.2-4.7,0.3-9.4,0.5-14.1c0.1-1.7,0.1-3.4,0.5-5
		c0.6-2.3,1.6-4.5,2.3-6.8c1.2-4.1,1.1-8.4,1.9-12.6c0.4-1.8,0.9-3.6,1.1-5.3c0.2-2.4,1.2-4.5,1.8-6.7c1.5-5,3.4-9.9,6.7-14.1
		c0.5-0.7,0.8-1.3,0.4-2.3c-0.4-0.9,0.1-2.1,0.2-3.3c1.1,0.3,1.8,0.5,2.4,0.7c0.9-1.6,1.7-2.9,2.4-4.3c1.6-3.5,3.1-7,4.7-10.5
		c0.6-1.2,1.6-2.1,2.2-3.2c0.9-1.7,1.4-3.7,2.5-5.2c1.8-2.5,2.3-5.6,3.9-8.2c2.3-3.9,3.3-8.3,5.7-12.2c1.4-2.3,1.7-5.3,2.6-7.9
		c0.5-1.3,0.9-2.6,1.3-4c0.3-0.8,0.7-1.5,0.9-2.4c0.7-3.9,2.2-7.3,5.4-9.8c0.4-0.3,0.6-0.9,0.8-1.4c0.1-0.2-0.1-0.5-0.2-0.8
		c-0.6,0.2-1.1,0.3-2,0.6c0.1-1,0-1.9,0.3-2.5c0.2-0.3,1.3,0,2,0.1c0.5,0.1,1.1,0.3,1.6,0.5c0,0-0.1-0.1-0.1-0.1
		c0,0.7,0.3,1.5,0.1,2.1c-1.1,2.4-2.4,4.8-3.5,7.2c-0.7,1.6-1.1,3.4-1.7,5c-2.2,5.7-4.7,11.2-6.1,17.1c-0.2,0.8-0.6,1.6-1,2.4
		c0.4,0.1,0.5,0.2,0.5,0.2c0.3-0.1,0.6-0.1,0.7-0.3c1.5-2.1,3.5-3.6,5.8-4.8c1.1-0.6,2.2-1.4,3.3-2.1c2.8-1.6,5.7-3.3,8.6-4.9
		c2.1-1.2,4.3-2.3,6.4-3.5c1.1-0.6,2.4-1.1,2.6-2.8c0-0.3,0.8-0.5,1.3-0.7c0.3-0.1,0.8,0.3,0.9,0.2c1.6-1.4,3.1-2.9,4.6-4.3
		c0.8-0.7,1.2-2,2.7-1.5c0.2,0.1,0.6-0.1,0.7-0.2c0.4-0.6,0.6-1.5,1.1-1.9c0.5-0.4,1.3-0.2,2-0.4c0.2-0.1,0.2-0.5,0.4-0.7
		c0.4-0.3,0.8-0.5,1.4-0.8c0.2,1.1,0.4,1.9,0.5,2.8c-0.8,0.6-1.4,1.3-2.3,1.7c-3.3,1.6-6.2,3.8-8.9,6.2c-2.1,1.9-4.5,3.5-6.7,5.3
		c-2.7,2.2-5.9,3.6-8.9,5.3c-3.4,2-6.5,4.4-9.7,6.6c-0.7,0.5-1.2,1.3-1.7,2.1c-0.8,1.3-1.4,3-2.4,4c-2.1,2.1-4.4,3.9-5.2,7
		c-0.1,0.6-0.9,1-1.2,1.5c-1.8,2.8-3.8,5.6-5.3,8.6c-1.3,2.4-2,5.1-3.2,7.5c-1.2,2.3-2.8,4.5-4.2,6.7c-1.1,1.8-1.9,3.9-3.3,5.4
		c-1.8,1.9-2.9,4.1-3.7,6.6c-0.9,2.6-1.7,5.2-3,7.6c-1.8,3.4-1.9,7.2-2.6,10.8c-1,4.9-1.9,9.7-2.9,14.6c-0.6,3-1.5,6-1.8,9.1
		c-0.4,4-0.2,8.1-0.4,12.1c-0.3,5-1.1,9.9-0.4,14.9c0,0.1,0,0.2,0,0.3c-0.1,5,0,10.1,1.6,15.4c2-0.8,3.9-1.5,5.7-2.1
		c0.8-2.9,1.4-3.4,4-3.7c0.9-0.1,1.9-0.2,2.7-0.6c3.9-1.5,8.3-1.4,12.2-2.9c0.3-0.1,0.9-0.2,1.1,0c1.1,1,2.3,0.4,3.2,0
		c3.3-1.5,6.7-1.4,10.2-1.1c1.8,0.2,3.7-0.1,5.6-0.2c1.2,0,2.4-0.1,3.5,0.1c1.5,0.2,2.8,0.2,4-0.8c0.8-0.7,1.8-1.3,3.1-0.8
		c0.7,0.2,1.6-0.2,2.5-0.3c1.4-0.1,2.8-0.2,4.2-0.1c2.5,0.2,5,0.3,7.4,0.8c2.1,0.5,4.2,1,6.4,0.6c0.4-0.1,0.9,0.1,1.4,0.3
		c3.6,0.9,7.3,1.9,10.9,2.9c3,0.8,6.1,1.4,8.8,2.7c4.1,2,7.9,4.6,11.9,6.9c2.6,1.4,5,2.9,6.3,5.8c0.4,1,1.5,0.9,2.1,0.2
		c1.2-1.3,2.6-1.4,4.1-1.1c0.1,0.4,0.2,0.8,0.3,1.4c2.7-1.6,5.2-0.4,7.7-0.2c-0.6,0.4-1.3,0.7-2.2,1.3c1.9-0.2,3.4-0.5,4.9-0.4
		c4.3,0.3,8.2,2,11.8,4.2c0.6,0.4,1.2,0.9,1.9,1.2c4.7,2.1,9.5,4,14.1,6.3c1.8,0.9,3.7,2.1,4.8,3.7c1.5,2.1,3.5,3.4,5.6,4
		c3.4,1,6,2.8,8.2,5.3c0.3,0.3,0.7,0.6,1,0.9c4,3.1,7.4,6.9,9.9,11.3c1.6,2.7,2.8,5.7,4.1,8.6c1.1,2.5,2,5.1,3.4,7.4
		c2.1,3.5,4.1,6.9,4.7,11c0.6,4.2,1.6,8.3,2.3,12.5c0.6,4,1.1,8,1.5,12c0.2,1.7,0.1,3.4,0.2,5.1c0.1,1.4-0.1,2.9,0.3,4.2
		c0.8,2.4,0.6,4.9,2.1,7.1c0.8,1.1,0.7,2.9,1,4.3c0.7,0.1,1.3,0.2,2.1,0.3c-1,0.8-1.5,1.4-1.1,2.5c0.5,1.8,0,3.5-0.9,5.1
		c-0.4,0.6-0.7,1.3-0.9,2.1c-1.5,5.6-4.2,10.7-7.8,15.2c-2.1,2.7-4.3,5.2-6.1,8c-0.8,1.3-1.7,2.6-2.6,3.8c-2,2.6-4.3,5-6.4,7.5
		c-2.1,2.5-3.9,5.3-6.2,7.5c-2.7,2.4-4.5,5.5-6.9,8.1c-3.6,3.6-5.5,8.6-10,11.4c-1.8,1.1-3.4,2.6-5.6,3.1c-0.5,0.1-0.8,0.5-1.6,0.9
		c1.8,0.3,3.3,0.1,4.3,0.7c1.3,0.9,2.6,1,4,1.2c1.6,0.2,2.9,0.8,3.4,2.6c0.1,0.4,0.4,0.9,0.6,1.2c3.2,3.9,4.9,8.4,5.2,13.5
		c0,1,0.3,2,0.4,2.8c3,0.2,5.7-0.2,8.1-1.7c2-1.3,3.9-2.6,5.7-4.1c1.8-1.5,2.8-1.7,4.8-0.5c0.6,0.4,1.1,1.1,1.7,1.4
		c0.7,0.3,1.9,0.8,2.3,0.5c1.3-0.9,2.8-1.8,3.3-3.7c0.6-2.5,1.5-5.1,2.6-7.4c1.6-3.4,3.9-6.3,8.2-6.5c1.7,1.9,3.1,3.9,3.2,6.7
		c0,1.2,0.1,2.7,1.8,3.5c1.5-1.8,3.3-3.4,4.5-5.4c2.2-3.5,5.4-5.7,8.9-7.5c1.3-0.7,3.1-0.7,4.6-1.1c2.7-0.7,3.4,2.8,5.8,2.6
		c0.3,0,0.6,0.4,0.8,0.7c0.3,0.3,0.6,0.6,0.7,0.9c0.8,3.9,3.3,7.3,3.3,11.5c-2-1-2-1-3.8,0.5c-0.3,0.3-0.9,0.2-1.6,0.4
		c1.4-2.4,1.6-3.5,0.9-4c-0.2,0.3-0.5,0.7-0.6,0.9c-3.5,0.2-3.5-3.6-5.8-5c0.9,0.3,1.9,0.5,2.8,0.8c0.9-1.7,0.8-2.7-0.3-3.8
		c-1.5-1.5-4.5-1.4-6.4,0.2c-1.8,1.5-3.5,3.2-5.4,4.5c-1.7,1.2-2.8,2.7-4,4.3c-1.2,1.7-2.5,3.3-4,4.6c-1.2,1.1-2.6,0.7-3.5-0.8
		c-0.8-1.4-1.6-2.8-1.6-4.7c0-1.5-1.1-3-1.8-4.5c-0.4,0.1-0.7,0.1-0.8,0.2c-2.1,2.1-3.8,4.3-4.4,7.3c-0.1,0.6-0.4,1.3-0.7,1.8
		c-1,1.6-2.1,3.2-3.2,4.6c-0.7,0.8-1.5,2-2.4,2.1c-1.6,0.2-3.2,0.5-4.8-0.5c-2.2-1.5-3-1.3-5,0.5c-3.7,3.4-8.1,5.3-12.9,6.5
		c-2,0.5-4.3,1-5.6,2.3c-1.3,1.3-2.8,2.2-3.9,3.7c-0.4,0.5-1,1-1.6,1.1c-2.7,0.4-5.1,1.7-8,1.1c-3.6-0.6-6.7-1.7-8.2-5.3
		c-0.6-1.3-1.2-2.6-2-3.8c-0.6-1-0.9-1.9-0.9-3.1c-0.2-3.3,0.3-6.4,1.6-9.4c0.1-0.3,0.1-0.7,0.1-1.1c-0.7-0.1-1.3-0.2-2.3-0.3
		c1.5-2.7,2.9-5,4.3-7.6c-2.2,0-3.4,1.4-4.6,2.4c-1.5,1.2-3,1.8-4.8,2.2c-2.6,0.7-5.2,1.7-7.7,2.8c-1.9,0.8-3.6,2.2-5.5,2.7
		c-1.3,0.4-1.8,1-1.7,2.1c0.1,2.1,0.5,4.3,0.7,6.4c0.1,1.3,0.2,2.6,0.5,3.8c0.2,0.9,0.8,1.8,1.2,2.8c1.6,1.3,4.2,1.2,5.5,3.9
		c-1,0.2-1.7,0.6-2.5,0.6c-2.2-0.2-4.2-1.3-5-3.3c-0.9-2.2-3.1-3.9-2.7-6.7c0-0.3-0.3-0.7-0.6-0.9c-1.4-1.1-1.8-2.5-1.6-4.3
		c0.1-0.8-0.2-1.6-0.3-2.4c-1.6,0.1-3.1,0.1-4.5,0.4c-3,0.6-6.2,0.1-9.1,1.7c-1.7,0.9-3.5,1-5.5,1.2c-2.7,0.2-5.4,0.3-7.6,2.4
		c-1.2,1.2-2.9,2.2-4.5,2.8c-3.2,1.3-6.5,2.3-9.5,4c-0.6,0.3-1.2,0.6-1.8,0.7c-3.7,0.7-7.3,1.6-11,2c-3.7,0.5-7.5,0.7-11.2-0.2
		c-1.7-0.4-3.5-0.8-5.2-1.2c-2.9-0.5-5.7-1-8.6-1.5c-2.4-0.4-4.8-0.7-7.2-1.1c-3.2-0.7-6.5-1.4-9.7-2.2c-1.6-0.4-3.1-1-4.6-1.2
		c-3.9-0.6-7.8-1.2-11.7-1.7c-5.4-0.7-9.7-3.5-12.9-7.6c-1.8-2.4-3.5-5.1-4.1-8.2c-0.3-1.5-1.1-2.5-2.9-3c-0.4,1.1-0.8,2.1-1.3,3.5
		c-1.1-0.1-2.4,0-3.4-0.4c-3.6-1.5-7.3-3-9.7-6.4c-0.3-0.5-0.8-0.8-1.2-1.2c-1.5-1.3-3-2.7-4.8-4.3c3.1-2.5-1.2-3.2-0.8-5.4
		c1.6,1.8,3.7,2.9,4,5.5c0.1,0.6,0.7,1.4,1.3,1.8c3.7,2.5,7.5,5,11.3,7.3c0.5,0.3,1.2,0.2,1.8,0.3c1.5-1.9,0.9-3.5-0.3-5
		c-1-1.2-1.9-2.7-3.2-3.5c-1.6-0.9-1.3-2-1.2-3.3c1.9-0.2,2.3,0,4,2.7c2-1.2,0.4-3.5,1.9-5.6c0.2,2.1,0.3,3.7,0.4,5.4
		c2.8,0.1,3.9,1.7,4.5,4.2c0.9,3.6,2.6,6.9,4.9,9.9c0.5,0.6,1.1,1.2,1.3,1.8c1.5,4.4,5.4,5.7,9.2,7c2.3,0.8,4.7,2,7.4,1.5
		c0.6-0.1,1.4,0.4,2.1,0.7c0.7,0.2,1.4,0.6,2.1,0.6c3.2,0.2,6.3,1.1,9.4,2c3,0.9,6.3,1.1,9.4,1.7c4,0.7,8.1,0.7,11.8,2.5
		c0.2,0.1,0.4,0.2,0.5,0.2c2-1.3,3.5,0.7,5.3,0.6c2.9-0.1,5.7,0.8,8.6,0.2c1.2-0.3,2.4-0.1,3.7-0.2c1.1-0.1,2.3,0.3,3.1-0.9
		c0.2-0.2,0.8-0.4,1-0.3c2.7,1.2,4.9-0.9,7.3-1.3c1.5-0.3,2.8-1,4.2-1.6c0.6-0.3,1.6-0.6,1.6-1c0.3-2.7,2.7-2.9,4.4-3.9
		c1.7-1,3.6-1.5,5.4-2.2c2.4-1,5-1.5,7.5-2c0.5-0.1,1.3-0.3,1.5-0.6c2.1-2.9,5.4-2.9,8.5-3.4c3-0.4,6-0.3,9-0.7
		c3.9-0.6,7.8-1.3,11-3.9c0.3-0.2,0.8-0.4,0.9-0.7c0.6-2.1,2.3-3.2,3.8-4.5c1.7-1.4,2.9-3.2,4.1-4.9c3.5-4.9,6.6-10,9.3-15.5
		c1-2,2.3-3.8,2.9-6c0.2-0.8,1.1-1.5,1.6-2.3c0.8-1.1,1.6-2.3,2.3-3.5c0.3-0.5,0.6-1,1-1.4c2.2-2.1,3.9-4.5,4.6-7.6
		c0.2-0.7,0.4-1.9,1.8-1.8c0.3,0,0.7-0.9,0.8-1.5c0.6-3.5,1.3-7,1.7-10.6c0.1-0.9-0.3-1.9-0.5-3c0.3-1,0.9-2.3,1-3.6
		c0.2-3.2,0.6-6.5-0.3-9.8c-0.5-1.8,0-3.9-0.1-5.9c-0.1-2-0.5-3.9-0.7-5.9c-0.1-1.5-0.1-3-0.3-4.5c-0.2-1.3-0.5-2.5-0.7-3.8
		c-0.1-0.3-0.4-0.5-0.4-0.7c0.1-3.9-2.7-6.5-4.1-9.7c-0.5-1.1-1-2.2-1.5-3.3c-0.2-0.4-0.5-0.9-0.8-1c-1.4-0.3-1.7-1.5-2-2.5
		c-0.7-2.3-2.2-4.1-3.7-5.9c-1.1-1.2-2-2.6-3.2-3.8c-0.9-0.9-1.9-1.6-3.1-2.6c0-0.2,0-0.7,0-1.5c-1.4-0.4-2.6-1.2-3.3-2.7
		c-0.6-1.3-2.1-1.5-3-2.3c-1.6-1.4-4-1.5-5.3-3.3c-0.4-0.6-1.7-0.5-2.6-0.6c-1.7-0.2-3.4-0.1-5-0.4c-1.2-0.2-2.2-0.9-3.1-2.2
		c-1-1.4-2.6-2.3-4-3.5c-0.3-0.3-0.5-0.7-1-1.6c1.6,0.1,2.7,0.1,3.7,0.4c1.7,0.4,3.3,1.2,5.2,0.9c0.2,0,0.4,0,0.6,0.1
		c3.3,1.8,6.8,3.3,9.7,5.5c2.2,1.7,4.4,3.3,6.7,4.8c0.8,0.5,1.5,1.4,2.2,2.1c3.6,3.5,7.4,6.9,9.7,11.5c0.2,0.4,0.7,0.7,1,1
		c2.6,3.2,4.8,6.6,6.1,10.6c0.1,0.2,0.1,0.4,0.2,0.5c4.3,3.9,4.2,9.3,4.9,14.5c0.2,1.4,0.7,2.7,0.8,4.1c0.3,4.8,1.1,9.6,0.7,14.3
		c-0.4,4,0.9,8.1-0.7,12.1c-0.6,1.5-1.2,3-1.5,4.6c-0.3,1.4-0.2,2.9-0.2,4.3c0.1,3.1-1.6,5.6-2.4,8.4c-0.5,1.8-1.4,3.5-2.3,5.1
		c-0.3,0.7-0.9,1.3-1.8,1.7c0.1-0.5,0.2-1.1,0.3-1.6c-0.1,0-0.3-0.1-0.4-0.1c-0.2,0.5-0.5,1-0.6,1.5c-0.1,1.3-0.4,2.3-1.6,3.1
		c-0.6,0.4-1,1.3-1.4,2.1c-0.5,1-0.9,2.1-1.6,2.9c-3.6,4.4-5.9,9.4-7.9,14.7c-1.1,2.7-3.4,5.1-5.4,7.3c-1.5,1.7-2.6,3.6-4,5.3
		c0.1,0.2,0.3,0.4,0.4,0.6c1.2-0.4,2.4-0.8,3.5-1.3c1.6-0.9,3.2-2,4.7-3c1.9-1.2,3.8-2.4,5.8-3.6c1.5-0.8,3.1-1.4,4.6-2.3
		c2.4-1.4,5-2.7,7.1-4.5c1.7-1.5,3-3.6,4.3-5.5c3.3-4.9,7.4-9,11.2-13.4c2.2-2.6,4.1-5.3,6.2-8c0.4-0.6,0.8-1.2,1.3-1.7
		c3.7-3.9,7.7-7.7,10.1-12.7c0.2-0.5,0.6-1,1.1-1.3c3.1-2,4.9-5.3,7.4-7.9c0.4-0.4,0.5-1,0.6-1.6c0.7-3.3,1.4-6.6,2-9.9
		c0.1-0.5-0.4-1.1-0.7-1.7c-0.5,0.2-1,0.5-1.4,0.7c-0.5,0.4-1,0.8-1.6,1.2c-0.1-0.2-0.3-0.3-0.4-0.5c0.4-0.7,0.8-1.3,1.3-2.1
		c-0.5-0.4-1-0.8-1.5-1.3c-0.5,0.9-0.9,1.6-1.3,2.4c-0.2,0-0.4,0-0.6,0c-0.2-0.9-0.5-1.9-0.6-2.8c-0.1-1.7,0-3.4,0-5.1
		c0-0.4,0-0.8,0.2-1.1c1.4-2.1,1-4.3,0.9-6.6c-0.1-1.3,0.2-2.6,0.2-3.9c0-2.3-0.1-4.7-0.1-7c-1.8-1.1-0.3-3.7-2.2-4.8
		c-0.3-0.2-0.4-1.3-0.1-1.5c1-1,0.5-2,0.2-2.9c-1.1-2.9-1.1-5.9-1.3-8.9c0-0.6-0.1-1.2-0.3-1.7c-1.5-3.5-3-7.1-4.7-10.6
		c-2.1-4.4-4.3-8.7-6.5-13.1c-0.2-0.4-0.6-0.6-1.1-1.1c-0.3,1.1-0.5,2-0.8,3.1c-0.9-0.5-1.4-1.1-1-1.8c1.6-2.9,0.3-4.8-1.8-6.9
		c-2.5-2.6-5.2-5-7.6-7.7c-0.6-0.6-1.2-0.8-2.1-0.9c-2.9-0.4-4.7-2.8-6.7-4.6c-0.6-0.6-1.1-1.5-1.8-1.6c-1.5-0.3-2-1.1-2.4-2.4
		c-0.6-1.8-1.8-3-3.7-3.6c-0.8-0.2-1.5-0.8-2.2-1.3c-0.8-0.6-1.3-1.6-2.6-0.7c-0.3,0.2-1.2-0.3-1.8-0.6c-4.1-2.1-8.2-4.4-12.3-6.4
		c-1.1-0.6-2.5-0.9-3.8-1.1c-3.2-0.6-6.4-1-9.6-1.6c-0.8-0.1-1.5-0.6-2.6-1c-1.7,1.4-3.8,1.8-6.3,0.1c0.4,0.8,0.5,1.1,0.8,1.6
		c-5.6,0.9-8.5,5.4-12,9c-0.3,2.3-2.8,3.7-2.6,6.4c0.1,0.9-1.1,1.9-1.7,2.9c-0.4,0.6-1,1.3-1,1.9c-0.1,2.5-0.4,4.8-1.4,7.1
		c-0.2,0.6-0.1,1.3-0.2,2.3c2.8,1,4.7,3.8,8.1,4c1,0,1.9,0.7,2.9,1c1.5,0.5,2.7,1.1,2.1,3c0.9,0,1.5-0.1,2.1-0.1
		c0.4,3,0.3,2.8-2.4,4.3c-2.3,1.3-4.7,1.8-7.2,2.4c-0.4,0.1-0.9,0.3-1.2,0.6c-0.9,1.4-2.1,1.5-3.7,1.3c-2.6-0.5-3.6,0.4-5,2.6
		c-1.8,2.8-2.4,5.9-2.5,9.2c0,0.9-0.8,1.7-1.4,3.1c-0.4-0.9-0.8-1.3-0.7-1.7c0.1-4.1,0.3-8.2,0.4-12.4c0.1-2.3,1.2-3.7,3.6-4.2
		c0.2,0,0.4,0.3,0.7,0.5c0.4-0.7,0.7-1.7,1.4-2.2c0.6-0.4,1.6-0.3,2.4-0.4c2.4-0.2,4.8-0.3,7.2-0.6c0.8-0.1,1.5-0.5,2.7-0.9
		c-0.7-0.6-1-1.1-1.4-1.3c-2.9-1.2-5.9-2.2-8.8-3.6c-3.6-1.8-5.6-3.9-3.3-8.6c0.4-0.8,0.4-1.7,0.7-2.9c-1.6,0.2-2,1.1-2.6,1.9
		c-0.9,1-2,2-3.1,2.8c-0.9,0.7-2,0.9-3.2,0.4c-0.5-0.2-1.1-0.1-1.9-0.2c0.9,2.8-1.3,3.9-2.6,5.5c1.1,3.2,4.2,3.7,6.6,4.9
		c0.3,0.1,1.2-0.6,1.5-1.2c0.5-0.9,0.6-2,0.9-2.9c0.3-0.8,0.8-1.3,1.8-1c1.1,0.3,1.2,1.1,1,2c-0.1,0.5-0.4,1-0.7,1.5
		c1,0.6,1.9,1.2,3.3,2c-2.3,1.5-4.2,2.8-6.3,4.1c-0.5-0.9-0.4-2.5-2.3-2.2c-0.5,1.2,1.3,2.7-0.1,3.7c-2-2-4.1-4-5.9-5.8
		c-2.7,1.2-5.1,2.2-7.4,3.2c-2.1,1-4.6,1.6-6.2,3.1c-1.7,1.6-3.9,1.5-5.7,2.7c-0.5,0.3-1.2,0-2.2,0c0.5-0.8,0.9-1.4,1.4-2.2
		c-0.5,0.2-0.9,0.3-1.2,0.4c-1.4,0.6-2.2,2.1-4.2,1.6c-0.9-0.2-2.2,1.2-3.4,1.7c-2.9,1.4-5.9,2.4-8.6,4.1c-2.8,1.7-6,1.6-8.8,2.9
		c-2.9,1.3-5.7,2.6-8,5.1c-1.2,1.2-2.8,2.2-4.3,2.9c-3.2,1.4-5.4,4.1-7.7,6.5c-2.8,2.9-5.1,6.2-7.4,9.5c-1.7,2.4-3.2,5-4.2,7.9
		c-0.7,1.9-2.1,3.6-3,5.5c-3.1,6-6,12.1-9.1,18.1c-1.1,2.3-2.4,4.5-3.5,6.8c-0.4,0.7-0.5,1.6-0.9,2.3c-1.4,2.9-2.9,5.8-4.4,8.7
		c-0.2,0.4-0.4,0.9-0.4,1.3c0.2,1.6-0.7,2.5-2.1,3.1c0.5,1.3,1.4,2.7-0.1,3.8c-1.3-3.8,0.2-7.1,1.8-10.4c0.9-1.8,1.5-3.7,2.3-5.5
		c0.2-0.6,0.4-1.3,0.8-1.8c1.6-2.1,1.7-4.7,2.7-6.9c0.9-1.9,1.1-4.2,3-5.6c0.3-0.2,0.6-0.5,0.7-0.8c1.3-3.4,3.5-6.4,4.3-10.1
		c0.3-1.5,1.3-2.9,2.3-4.2c1.2-1.5,2.1-3,2.7-4.9c2.2-7.2,6.2-13.4,11.6-18.7c2.7-2.7,5-5.8,8.6-7.5c0.3-0.2,0.7-0.4,0.9-0.7
		c2-3.5,5.5-5.1,8.7-7.1c2.1-1.3,4.7-2,7-2.8c1.7-0.6,3.4-1.1,5.1-1.6c1.5-0.5,3.1-0.9,4.6-1.4c1.5-0.6,3.1-1.1,4.3-2
		c1.3-1,2.6-1.6,4.2-1.9c1.1-0.2,2-1.2,3-2c1.8-1.4,7-2.9,9.3-2.8c0.5,0,1.1-0.1,1.6-0.4c1.8-0.8,3.5-1.6,5.4-2.5
		c-0.1-0.3-0.3-0.8-0.6-1.2c-2.2-3.1-5.6-4.5-8.9-6.1c-3.6-1.8-7-4-10.5-6c-1-0.6-2-1.1-3-1.5c-2.6-1.2-5.2-2.3-7.8-3.6
		c1.8-0.2,3.6-1,5.5,0c1.2,0.6,2.6,1.2,4,1.3c2,0.2,3.4,1.5,5.1,2.3c2.6,1.2,5.2,2.6,7.9,3.7c3.7,1.5,6.5,4,8.7,7.4
		c0.9,0,1.8,0.1,2.7,0.1c1.9-2.6,1.6-4.3-1-5.8c-1.1-0.7-2.2-1.5-3.2-2.3c-2.9-2.3-5.7-4.7-8.7-6.7c-1.2-0.8-2.5-1.1-3.4-2.5
		c-0.5-0.7-1.6-1-2.4-1.4c-1.4-0.6-2.9-1.1-4.4-1.8c-1.5-0.7-2.5-1.7-1.7-4c-2.8,1.1-4.3-0.7-6.1-1.8c-0.5-0.3-0.9-0.7-1.3-1.1
		c-1.2-1.3-1.6-2.9-1-3.8c0.6-0.9,2.1-1,3.7-0.4c5.7,2.1,10.7,5.4,15.9,8.5c1.9,1.2,4.2,1.6,6.2,2.7c3.6,1.9,7.6,1.9,11.4,3.1
		c1.5,0.5,3.2,0,4.7,0.3c1.8,0.3,2.5,1.3,2.2,2.4c-0.3,1.2-1.7,1.8-3.2,1.7c-1.6-0.1-3.3,0-5,0c0.9,4.7,3.8,6.2,8.2,5.1
		c2.5-0.7,4.2-1.7,5.3-4.1c0.9-1.9,2-3.8,3.3-5.6c1.1-1.5,2.2-3.2,4.3-3.3c-0.2-2.7,1.3-4.4,3-6.1c1-0.9,2.2-1.9,2.7-3.1
		c0.9-2.5,2-4.6,5-5.1c-1.2-2.1-3.3-2.5-4.9-3.4c-0.8-0.5-1.5-0.7-2.2-1.5c-0.8-0.9-1.9-1.7-3-2c-2.6-0.6-4.6-2.1-6.8-3.3
		c-1.1-0.6-2.2-1.3-3.3-1.3c-2.3-0.1-4.1-1.5-6.3-1.9c-2.2-0.4-4.4-1.1-6.6-1.5c-4.9-0.8-9.8-1.8-14.8-2.1c-3.3-0.2-6.7,0.6-10,1
		c-0.3,0-0.6,0.2-0.8,0.2c-6.4,0.1-12.7,1.8-19.1,0.9c-0.5-0.1-1.2-0.1-1.7,0.1c-4.5,1.8-9.3,2.1-13.9,3.5c-3.3,1-6.9,1.6-9.9,3.8
		c-1.7,1.2-3.9,1.7-6.1,2.6c-0.1-0.8-0.3-1.5-0.4-2.5c-1.3,2.5-0.4,4.2,2.1,4.4c2.8,0.3,5.6,0.8,8.4,1c3.4,0.3,6.7,0.5,10.1,0.8
		c0.9,0.1,1.9,0.2,2.7,0.6c3.7,1.4,7.7,2.1,10.9,4.5c2.7,2,5.4,4,8.1,6c0.6,0.4,1.2,0.8,1.9,1.2c0.7,0.4,1.4,0.9,1.9,1.8
		c-1,0-1.9-0.1-3-0.1c0.2,1.8,1.3,1.8,2.3,1.9c1,0.1,1.9,0.2,1.7,1.6c-0.9-0.2-1.8-0.4-2.6-0.6c-0.4-0.1-0.8,0-1.1-0.2
		c-2.5-1.7-4.8-3.6-7.3-5.3c-1.9-1.3-4-2.4-6-3.5c-1.3-0.7-2.6-1.5-3.9-2.2c-3.4-1.7-7.2-0.6-10.7-1.3c-1.6-0.4-3.4-0.4-5-0.5
		c-1.6-0.2-3.1-0.7-4.7,0c-0.3,0.1-0.8,0.1-1.1,0c-3.1-0.4-6.1-1.2-9.2-1.2c-2.2,0-4.4,0.8-6.5,1.5c-3.6,1.1-7.1,2.4-10.6,3.8
		c-0.8,0.3-1.5,0.9-2,1.5c-2.7,3.4-5.4,6.7-7.9,10.3c-1.1,1.5-1.7,3.3-2.5,5c-1,2.3-2.1,4.6-3,6.9c-0.3,0.8-0.5,1.6-0.6,2.4
		c-0.4,2.7-1,5.3-2.5,7.6c-0.6,0.9-0.9,2.1-1,3.2c-0.2,2.2-0.6,4.2-2.4,5.9c0.6,0.2,1,0.2,1.5,0.4c-2.1,2.5-1.6,5.7-2.5,8.5
		c-1.1,3.6-1.9,7.3-2.7,11c-0.5,2.1-0.8,4.2-1.3,6.3c-0.1,0.5-0.2,1-0.4,1.4c-1.9,2.9-2.1,6.3-3.5,9.3c-0.4,1,0,2.5-0.6,3.3
		c-1.8,2.3-1.6,5.1-2,7.7c-0.4,2.5-0.3,5-0.4,7.6c-0.1,1.1-0.3,2.2-0.5,3.3c-0.1,0.5-0.1,0.9-0.1,1.4c0,3,0,6,0.1,9
		c0.1,3.9,0.9,8,0.2,11.8c-0.9,5.2,1.2,9.9,1.1,14.9c0,2.4,1.3,4.6,2.3,6.8c1.4,3.1,2.7,6.2,4.1,9.3c0.6,1.5,1.8,2.3,3.2,3.1
		c3.2,1.8,6.6,3.1,10.2,4.1c0.7,0.2,1.3,0.8,2,1.1c0.8,0.3,1.7,0.7,2.6,0.7c1.8,0,3.2,0.7,4,2.3c0.9,1.8,1.9,3.6,2.8,5.5
		c-1,0.3-1.8,0.2-2.5-0.7c-1.1-1.4-2.6-2.6-3.6-4.1c-0.7-1-1.7-1.2-2.7-1.3c-3.3-0.3-6.3-1.5-9.3-2.9c-0.4-0.2-0.9-0.2-1.6-0.3
		c-0.2,0.9-0.3,1.7-0.4,2.4c1.1,0.3,2,0.5,2.8,0.7C247.1,751.6,247.3,752.4,247.6,753.1C247.5,753.2,247.6,753.1,247.6,753.1z
		 M439.2,771.5c0.4,1.5-0.3,1.9-1.2,2.4c-3.1,1.6-4.3,4.5-4.8,7.7c-0.2,1.3-0.3,2.6-0.3,3.9c0,5.1,5.8,10.7,10.9,8.8
		c1.8-0.7,3.8-0.9,5.6-1.5c0.4-0.1,1-0.4,1.1-0.7c0.5-2.2,2.3-4.2,0.9-6.6c-0.9-1.6-0.8-3.3-0.2-4.6c1.2-2.3,0-4.1-1.1-5.7
		c-0.7-1.1-1.4-2.2-1.8-3.4c-0.2-0.4-0.4-1-0.8-1.1c-1.9-0.6-3.9-1.5-5.8-1.5c-1.7,0-3.7,0.2-5.2,1.9
		C437.6,771.3,438.4,771.4,439.2,771.5z M359.7,602.8c1,1.3,2.4,1.7,3.9,2.1c-0.2-4.3-2.2-5.9-7.8-6.6
		C357,599.7,358.4,601.2,359.7,602.8z M491.9,685.7C491.9,685.7,491.9,685.7,491.9,685.7c-0.1,0.4-0.1,0.9-0.1,1.3c0,0,0,0,0.1,0
		C491.9,686.5,491.9,686.1,491.9,685.7z"/>
	<path class="st0" d="M662.8,490.9c-1.5-0.1-2.4-1-3.3-2c-1.5-1.8-2.9-3.8-4.6-5.3c-2-1.8-4.1-3.5-6.7-4.4c-2-0.7-3.9-1.8-5.8-2.9
		c-1.3-0.7-2.1-2-1.8-3.5c0.3-1.5,1.3-2.8,2.9-3c1.8-0.3,3.1-1.5,4.6-2.4c1.7-1,3.7-2,5.7-2.2c3.2-0.3,6.5,0.3,9.7,0.2
		c1.9-0.1,3.4,0.4,5,1.4c1.5,0.9,2.8,2.3,4.8,1.5c0.4-0.1,1,0,1.4,0.2c1.1,0.5,2.1,0.1,3.3-0.1c2.7-0.5,5.4-0.6,8.1-0.8
		c0.4,0,1,0.1,1.3,0.4c1.5,1.6,3.4,2.7,4.3,5.1c0.9,2.4,2.3,4.7,3.6,7c0.6,1,1,2.1,0.2,3.1c-0.5,0.7-1.2,1.3-1.9,1.9
		c-0.6,0.5-1.2,0.9-1.9,1.1c-2.3,0.6-4.7,1.2-7.1,1.7c-1.4,0.3-3,0.5-4.2,1.1c-3.7,1.8-7.5,2.3-11.6,2.5
		C666.7,491.3,664.7,491,662.8,490.9z M647.1,470c-0.2,0.2-0.4,0.3-0.6,0.5c0.4,0.2,0.8,0.4,1.3,0.5c-0.9,0.5-1.9,1-3.3,1.8
		c1,0.7,1.6,1.4,2.3,1.7c1.1,0.5,2.3,0.7,3.4,1.2c2.9,1.2,5.1,3.3,7.3,5.5c-0.6,0.2-1.2,0.4-0.6,1.8c0.3-0.9,0.4-1.4,0.5-1.8
		c1,0.1,1.7,0.5,2.3,1.3c0.6,0.9,1.4,1.8,2.1,2.6c1.3,1.5,2.8,1.9,4.8,1.8c4.2-0.3,8.1-1.4,12.1-2.4c2.5-0.7,5.1-1.1,7.7-1.4
		c1.7-0.2,3-0.9,4.3-2.3c-1-2.9-3.3-5.5-3.1-9c-1.2-0.1-2.3-0.4-3.3-1.1c-0.8-0.5-2.3,0-3.7,0.1c-0.1,0.7-0.2,1.4-0.3,2.2
		c-1.4,0.8-3,0.5-4.6,0.5c-2.5,0-4.6-1.1-6.9-1.4c-1.5-0.2-2.9-1.2-4.4-1.8c-0.7-0.3-1.4-0.6-2-0.6c-1.1,0-2.3,0.9-3.3-0.4
		c-0.1-0.2-1.2,0.2-1.7,0.6c-1.5,1.1-4.1,1.2-5.6,0.1c-2.2-1.6-2.2-1.6-3.6,0.9c-0.1,0.1-0.3,0.2-0.5,0.3
		C647.5,470.8,647.3,470.4,647.1,470z"/>
	<path class="st0" d="M506.4,436.1c0.8,0.3,1.6,0.8,2.3,1.5c1.2,1.2,2,2.9,3.3,3.7c1.9,1,2.5,2.6,3.2,4.3c0.3,0.7,0.5,1.4,0.9,2.1
		c1.6,2.9,1.5,5.7-0.7,8c-2,2.1-4,4.2-6.4,6c-2.7,2-5.5,3.9-7.8,6.3c-1.2,1.2-2.2,2.6-3.5,3.6c-5.1,4.1-11.2,6.5-17.2,8.8
		c-3.3,1.3-6.8,1-9.1-2.2c-1.8-2.6-3.8-5.5-2.3-9c1.2-2.7,2.4-5.6,4.3-7.9c2.2-2.8,4.4-5.5,6.4-8.4c0.3-0.5,0.8-0.8,1.1-1.3
		c0.9-1.3,1.8-2.6,2.6-4c1.5-2.4,3-4.9,5.1-6.9c2.1-1.9,4.8-2.5,7.2-3.6c2.5-1.1,4.9-0.8,7.3,0.5c0.5,0.3,1,0.5,1.8,0.8
		C505,436.5,505.5,435.8,506.4,436.1z M472.8,470.3c-1.7,3.1,0.8,6.5,4.4,6.3c2.1-0.1,4-0.5,5.9-1.7c3.4-2.1,7-3.7,10.5-5.7
		c1.1-0.6,2-1.8,2.8-2.8c3.1-3.9,6.8-7,11.2-9.3c2.6-1.3,4.5-3.2,6.1-5.6c1.1-1.7,0.2-3.1-0.2-4.6c-0.1-0.4-0.7-0.8-0.7-1.2
		c-0.5-2.9-3.2-3.8-5.1-5.3c-0.4-0.3-1.2,0.1-1.8,0c-2.1-0.5-4.2-1.1-6.5-1.7c-0.1,0.3-0.2,0.8-0.3,1.2c-3.3-0.3-5.7,1.5-7.9,3.6
		c-1.7,1.6-2.9,3.7-4.3,5.6c-0.6,0.8-1.4,1.5-2,2.3c-0.4,0.5-1.1,1-1.2,1.5c-0.3,2.1-1.8,3.4-2.8,5.1c-0.6,1-1.8,1.7-2.9,2.7
		c0.5,0.2,0.8,0.4,1,0.5C476.7,464.4,474.4,467.2,472.8,470.3z"/>
	<path class="st0" d="M456.1,325.8c0.2-0.6,0.4-1.2,0.6-1.7c4.9-2,9.7-4,14.5-5.9c1.7-0.7,3.6-1,5.4-1.5c0.9-0.3,1.7-0.5,2.6-0.9
		c1.3-0.6,1.4-0.6,3,0.9c0.2-0.9,0.4-1.6,0.6-2.2c0.3-0.2,0.5-0.3,0.6-0.3c1.1,0.4,2.1,0.1,3.2-0.3c1.4-0.6,2.9-1.6,4.6-0.9
		c0.1,0.1,0.5,0,0.5-0.1c0.9-1.7,2.5-0.8,3.8-0.9c6.9-0.8,13.8-0.5,20.7-0.3c0.8,0,1.7-0.2,2.5-0.1c1.9,0.3,3.6,0.4,4.9,2.6
		c1.8,3.1,4.4,5.6,6.6,8.4c0.6,0.8,1.1,1.7,1.6,2.6c1,0.5,2.1,0.8,3,1.5c2.3,1.6,4.6,2.6,7.3,1.4c0.3-0.1,0.6-0.1,0.8-0.1
		c1.6,0,3.3,0,4.4-1.4c1.2-1.6,1.5-3.7,1.3-5.7c-0.6-4.2,0.3-8.1,1.8-12.1c1.4-4,2.4-8.1,3-12.3c0.5-3.4,0.1-6.5-0.1-9.8
		c0-0.5-0.4-1.1-0.6-1.6c-0.2,0-0.4,0-0.7,0.1c-0.2,2.2-0.6,4.4-0.7,6.6c0,1.7-0.5,3.4,0.2,5.2c0.3,0.8-0.7,2.2-1.1,3.3
		c-0.6,1.9-1.1,3.8-1.8,5.6c-0.4,1.1-1.2,2.1-1.8,3.1c-0.1,0.2-0.4,0.5-0.4,0.7c-0.2,2.2-0.5,4.5-0.5,6.7c0,1.7,0.4,3.4,0.5,5
		c0.1,1.1-0.4,1.9-1.4,2.6c-2.6,1.5-6.6,1-9-1.2c-1.7-1.5-3.7-2.8-5.3-4.4c-1.4-1.5-2.4-3.3-3.7-5.2c0.7-0.3,1.2-0.5,1.8-0.7
		c-1.2-2.3-0.2-4,1.3-5.9c1.2-1.4,2.3-3.2,2.3-5.3c-4.4,0.5-5.8,2.3-6.3,8.2c-0.6-0.5-1-0.9-1.6-1.4c-0.5,1.1-1.3,1.7-2.6,1
		c-1.5-0.7-3,0.1-4.6-0.1c-3.9-0.6-7.9-0.3-11.8-0.3c-3.1,0-6.2-0.3-9.3,0c-3.9,0.3-7.8,0.9-11.6,1.8c-1.8,0.4-3.4,1.6-5.3,2.2
		c-4.4,1.3-8.6,3-12.9,4.6c-2.8,1-5.5,2.2-8.3,3.4c-2.5,1.1-3,2.5-1.9,5.1C456.2,325.8,456.1,325.8,456.1,325.8z"/>
	<path class="st0" d="M676.4,616.4c0.7,1,1.3,2,2.1,3c0.6,0.8,1.6,1.3,2.2,2.1c3.1,3.9,7.3,6.4,11.5,9c1,0.6,1.9,1.3,2.8,1.8
		c0.8,0.4,1.7,0.8,2.6,1c1.6,0.3,2.5-0.3,2.9-1.9c0.2-1,0.4-2.1,0.4-3.1c-0.2-5.6-0.8-11-4-15.9c-1.7-2.6-3-5.4-4.5-8.1
		c-0.9-1.5-2.2-2.6-3.1-4.3c-2.8-5.2-6-10.2-9.2-15.1c-1-1.4-1.8-3.2-3.7-3.9c-0.2-0.1-0.5-0.4-0.6-0.7c-0.4-0.8-0.8-1.6-1-2.2
		c-1.8,0.1-3.2,0.2-5.1,0.3c2.2,1.5,4.4,2.7,3.8,5.5c0.7,0.4,1.7,0.6,2,1.2c1.8,3,4.3,5.5,5.8,8.8c1.4,3.1,4.2,5.6,6.4,8.4
		c0.3,0.3,0.8,0.5,1,0.9c1.5,3.1,2.9,6.3,4.4,9.4c0.5,1,0.8,2.2,1.5,3c1.2,1.4,1.8,3.1,2,4.9c0.4,2.8,0.6,5.7,1,8.5
		c-0.2,0.1-0.4,0.2-0.6,0.3c-2-1.4-4-2.7-6-4.1c-0.5-0.3-0.9-1-1.3-1c-2.5-0.1-3.5-2.5-5.4-3.3c-0.2-0.1-0.3-0.2-0.4-0.4
		c-3.1-5.5-7.9-9.9-10.7-15.7c-0.4-0.8-0.8-1.7-1-2.6c-0.8-4.1-1.5-8.3-2.2-12.5c-0.2-1.4-0.2-2.8,1.1-3.8c-1.5-2-2.3-1.9-3.6-0.3
		c-1.9,2.2-1,4.4-0.4,6.6c0.4,1.5,1.2,3,1.7,4.5c0.4,1.1,0.9,2.3,0.1,3.5c-0.2,0.4,0,1.1,0.2,1.6c1.8,4.1,3.4,8.3,6.4,11.8
		C676.1,614.4,676.1,615.5,676.4,616.4z"/>
	<path class="st0" d="M333.8,398.8c0.1,0.2,0.2,0.7,0.3,0.7c2.5-0.2,5-0.4,7.5-0.7c0.1,0,0.1-0.1,0.3-0.5c-1.2-0.1-2.3-0.1-3.6-0.2
		c0.7-1.3,1.7-0.8,2.6-0.9c2.1-0.1,4-0.5,4.5-3c0.1-0.5,0.7-0.8,1.1-1.2c1.1-1.5,1.8-3,1.1-5c-0.8-2.2-0.7-2.4,0.9-3.6
		c0.1-1.1-0.1-2,0.2-2.7c2.1-4.2,4.7-8.1,7.9-11.6c1.5-1.7,3-3.3,4.5-5c0.8-0.9,1.4-2,3.2-1.7c0.9,0.1,2-1.5,3-2.3
		c0.6-0.5,1.2-1.1,1.8-1.7c0,0,0.1,0,0.1,0c-1.1-0.2-2,0.1-2.7,1c-0.5,0.7-1,1.3-1.7,2.1c-0.6-0.5-1.1-0.9-1.7-1.3
		c-0.2,0.1-0.5,0.2-0.7,0.4c-3,2.9-6,5.9-8.1,9.6c-1.3,2.3-3.3,4.3-5.1,6.4c-0.6,0.6-1.6,0.8-2.5,1.2c-1.1,0.5-2.3,1-3.8,1.8
		c-1.1-0.6-2.4-1.6-4-2.2c-3.5-1.5-6.6-1.8-9.4,0.9c-0.7,0.7-1.7,1.2-2.5,1.8c-0.8,0.6-1.9,1-2.5,1.9c-1.4,2.1-3.5,2.1-5.5,2.4
		c-2.2,0.4-4.5,0.5-6.6,0.7c-2.1,3-1.7,4.7,1.4,6.1c3.1,1.4,6.1,2.9,9.2,4.4c0.8,0.4,1.6,0.5,2.8,0.8c-0.2-1.8-0.3-3.1-0.4-4.7
		c-0.8-0.2-1.7-0.5-2.7-0.8c-1-0.3-2-0.5-2.9-1c-0.4-0.2-0.7-0.9-0.8-1.4c0-0.3,0.6-0.8,1-0.8c5.3-0.4,8.8-3.8,12.3-7.2
		c1.2-1.2,2.3-1.5,3.8-0.8c0.5,0.2,1.1,0.3,1.6,0.6c1,0.8,2,0.9,3.1-0.1c1,3.3,1.4,5.9-1.3,8.3c-1.9,1.6-1.6,2.7,0.4,4.3
		c-0.2,0.7-0.3,1.4-0.5,2.1c0,0.1-0.1,0.1-0.2,0.2c-2.8,0-5.7,0-8.9,0C331.4,397.2,332.6,398,333.8,398.8
		C333.7,398.8,333.8,398.8,333.8,398.8z"/>
	<path class="st0" d="M681.3,390.2c-2.2-1.9-4.8-1.5-6.9-0.5c-3,1.3-6,1.5-9,1.3c-3.7-0.2-7.4,0-11.1,0.5c-1.5,0.2-3,0.5-4.4-0.4
		c-0.3-0.2-0.8-0.3-1-0.2c-1.9,1.3-3.9,0.9-6.1,0.4c-0.2,0.8-0.5,1.5-0.7,2.3c-0.2-0.1-0.4-0.1-0.6-0.2c0.1-0.8,0.1-1.6,0.2-2.9
		c-0.7,1-1.1,1.6-1.4,2.1c-1.3-0.3-1.5-1-1.1-2c0.8-1.7,1.6-3.3,2.4-5c2.6-0.1,2.7,0,3.5,3.3c2.7,0,5.4,0,8.1,0
		c3.9,0,7.7,0,11.6-0.1c4.9-0.1,9.5-2.7,14.5-1.9c0.2,0,0.3-0.2,0.5-0.2c1.3-0.2,2.7-0.8,4-0.6c1.4,0.2,2.2-0.6,2.8-1.4
		c1.1-1.4,1.9-3,2.8-4.5c1-1.8,2.5-2.4,4.5-2.1c0.9,0.1,1.9,0.3,2.8,0.2c1.7-0.2,3.5-0.4,5.1-0.8c2.1-0.5,3.3-1.9,3.5-3.9
		c0.2-2,0.1-2.2-2.3-2.2c-0.1,0.8-0.2,1.7-0.3,2.5c-2.4-0.2-2.4-1.7-2-3c-1.5-0.9-2.8-1.7-4.1-2.5c0.2-0.1,0.5-0.3,0.7-0.3
		c3.3-0.2,6.5-0.5,9.8-0.6c1.4,0,3.1-0.2,4.1,0.5c1.4,1,2.8,1,4.2,1c0.6,0,1.2,0.1,2,0.2c-0.4,1.6-1.3,1.9-2.6,1.8
		c-1.2-0.1-2.5,0-4,0c0.8,2.7,1.5,5.2-1.8,6.8c1.4,0.4,2.4,0.6,3.9,1c-1.5,0.7-2.7,0.9-3.5,1.6c-1.5,1.3-2.2-0.8-3.4-0.7
		c-0.4,0.7-0.9,1.8-1.1,1.8c-1.8-0.5-2.4,1.1-3.5,1.8c-1.8-1.4-1.8-1.4-4.5-0.2c-0.3-1.1-0.5-2.1-0.9-3.4c-2.6,0.4-5,0.8-6.1,3.5
		c-1.2,3-3.1,5-6.5,5.1c-0.2,0.8-0.3,1.4-0.5,2.3C682.4,390.4,681.7,390.5,681.3,390.2z M706.3,368.8c0-0.1,0-0.2,0-0.3
		c-0.7,0-1.3,0-2,0c0,0.1,0,0.2,0,0.3C705,368.8,705.6,368.8,706.3,368.8z"/>
	<path class="st0" d="M471.6,530.8c-0.6,1.3-1.3,2.5-1.7,3.9c-0.5,1.7-0.3,3.6-2.2,4.6c-0.1,0-0.1,0.2-0.1,0.2c0,4-3.9,6.2-4.6,10
		c-0.3,1.4-1.7,2.6-2.5,3.9c-1.4,2.4-2.6,5.1-6.5,5.3c-2.1-1.7-5-3.8-5.7-7.1c-0.7-3.4-1.3-7.1,0.6-10.7c2-3.7,3.2-7.8,5.3-11.4
		c1.2-2.1,2.3-4.6,4.7-5.8c1.2-0.6,2.4-1.1,3.7,0.2c0.4-0.6,0.7-1.1,0.9-1.5c-0.7-1.7-3.5-2.6-5.4-1.8c-2.5,1.1-3.9,3.4-5.6,5.4
		c-2.1,2.6-3.5,5.5-4.7,8.5c-0.3,0.7-1,1.3-1.6,2c0.8,1.3,0.3,2.8-0.5,4.2c-0.8,1.4-1.5,2.7-1.4,4.5c0,1-1.3,2-0.7,3.3
		c0.4,0.8,0.7,1.7,1.1,2.5c0.2,0.3,0.7,0.6,0.7,0.8c0.1,1.3-0.1,2.6,1.7,2.9c-0.5,1.5,0.8,2.3,1.5,3c1.8,1.7,3.6,3.7,6.5,3.8
		c2.7,0.1,4.9-1.2,6.3-3.2c3.1-4.6,5.8-9.4,8.7-14.2c1.2-2,2.4-4,3.5-6.1c0.7-1.4,1.4-2.8,1-4.6
		C474.1,532.2,473.4,531.3,471.6,530.8z"/>
	<path class="st0" d="M569.4,781c0.9-1.6,2.3-3.3,3.9-3.9c1.8-0.8,4-0.5,6.1-0.6c0.1,0,0.3,0.2,0.5,0.3c2.9,2.8,6.4,5.1,8.3,9
		c0.9,1.9,1.2,3.2,0.3,4.4c-1.2,1.6-3.3,2.4-5,1.4c-2.2-1.3-4.3-2.9-6.2-4.6c-0.8-0.7-1.3-1-2.3-1c-1.8,0-3.3,0.5-4.6,1.8
		c-1.3,1.2-2.9,1.4-4.4,1c-0.9-0.2-1.5-1.5-2.2-2.2c-0.4-0.4-0.8-0.7-1.7-1.5C566.2,785.1,567.6,784.1,569.4,781z M582.3,786.4
		c-1.3-1.3-2.5-2.6-3.8-3.9C578.4,785.2,579.7,786.5,582.3,786.4z"/>
	<path class="st0" d="M414.5,314.2c0.9-0.9,1.7-1.6,2.5-2.5c-1.8-2.4-1.5-5.2-1-8c0.5-2.9,1-5.9,1.5-8.8c0.4,0,0.8-0.1,1,0.1
		c1.4,1.5,3,2.9,4.2,4.4c1.9,2.4,3.6,5,5.5,7.5c2,2.6,3.6,5.6,5.5,8.2c0.8,1.1,1.2,2.2,1.9,3.3c1.1,2,2.1,4,3.5,5.9
		c1,1.4,2,2.8,3,4.2c0.4,0.5,0.9,0.9,1.2,1.5c0.7,1.1,1.7,2.1,1.9,3.3c0.3,1.6,1,2,3.1,2.1c-2.7-2.1-2.7-5-3.9-7.2
		c-1.3-2.3-2-5-4.3-6.7c-0.2-0.2-0.5-0.4-0.5-0.6c-0.2-2.7-2.3-4.4-3.4-6.7c-0.8-1.8-2.1-3.3-3.1-5c-1-1.7-2-3.4-3-5
		c-0.4-0.7-0.9-1.4-1.5-2.1c-2.7-3.1-5.5-6.1-8.3-9.2c-0.3-0.3-0.4-0.9-0.7-1.2c-0.5-0.5-1.2-1.4-1.5-1.3c-0.8,0.3-1.9,1.1-1.9,1.7
		c0,1.5-0.7,2.3-1.6,3.4c-1.8,2-2.1,4.8-2,7.3c0.1,3.2,0.8,6.3,1.3,9.5C413.8,312.9,414.2,313.5,414.5,314.2z"/>
	<path class="st0" d="M676.9,367.1c1.5-0.4,3-0.7,5-1.2c-2.9-0.4-5.2-0.5-7.6,0.3c-0.6,0.2-1.4,1-1.7-0.4c0-0.1-1.1-0.1-1.6,0.1
		c-1.3,0.4-2.6,1-4,1.4c0,0.5,0.1,0.9-0.1,1.4c-0.1,0.3-0.4,0.6-0.9,1.2c-0.2-1.5-0.3-2.4,1.1-2.5c-1.1-0.5-2.1-1.1-3.1-1.6
		c-0.3,0.3-0.4,0.4-0.4,0.5c0.1,3.4-2.7,4.1-5.1,4.9c-1.1,0.4-1.9,0.9-2.8,1.6c-1.3,1-2.8,1.8-4.3,2.5c-1.9,0.8-3.8,1.2-5.3,3
		c-1.1,1.4-3,2.2-4.4,3.4c-1.2,1-1.2,2.2-0.4,2.9c0.8,0.6,2,0.3,2.8-0.9c0.7-1,1.2-2.1,1.6-2.8c1.2-0.4,2.4-0.6,3.3-1.2
		c1.3-0.9,2.2-2.2,3.5-3.2c0.5-0.4,1.3-0.4,2-0.6c0,0-0.1,0-0.1,0c1.4,0.4,2.8,0.8,4.4,1.2c0.1-0.8,0.2-1.6,0.4-2.7
		C665.2,371.8,671.1,369.4,676.9,367.1L676.9,367.1z"/>
	<path class="st0" d="M671.1,427c-4.4-0.2-8.7,0.6-13.1,1.4c-1.1,0.2-1.7,2.2-3.4,0.8c-0.6-0.6-2.3,0.2-3.5,0.1
		c-1.3-0.1-2.6-0.4-3.8-0.9c-1.7-0.6-2.2,0.3-2.5,1.9c1.8,0.6,3.2,2.1,5.5,1.4c0.9-0.3,2.2,1,3.4,1.3c2.2,0.7,4.5,1.2,6.8,1.8
		c0.6,0.2,1.3,0.3,1.9,0.6c3.1,1.4,6.5,2.3,9.8,3c0.6,0.1,1.2-0.2,2.1-0.4c-1.5-1-2.7-1.5-4.1-0.4c-0.2-0.6-0.1-1.4-0.4-1.5
		c-1.6-0.7-3.2-1.3-4.9-1.9c-0.2-0.1-0.4,0.1-0.5,0c-2.4-2-5.4-1.4-8.5-1.7c1.5-1.5,3.2-1.4,4.7-1.2c1.2,0.2,2.2,0.4,3.1-0.6
		c0.2-0.2,0.6-0.3,0.9-0.3c1.2,0,2.5,0.2,3.7,0.2c1.3,0,2.1-0.4,2-2C670.2,428,670.8,427.5,671.1,427L671.1,427z"/>
	<path class="st0" d="M591.3,348.5c0.6,1-0.2,2.8,1.9,3.2c0.1-0.6,0.4-1.2,0.2-1.5c-0.5-1-1-2.1-1.8-2.8c-2.7-2.1-3.9-5.4-6.5-7.6
		c-0.4-0.3-0.8-0.7-0.8-1.1c-0.8-5.1-5.2-7.6-8.4-10.7c-1.6-1.6-3.8-2.9-5.7-4.1c-3.7-2.2-6.8-5.4-10.9-6.9
		c-0.9,1.3,0.1,1.8,0.8,2.4c2.8,2,5.6,3.8,8.3,5.9c2.5,1.8,4.8,3.8,7.1,5.8c1.9,1.6,3,3.9,5.1,5.3c0.9,0.6,1.3,1.9,1.9,3
		c0.1,0.2,0.1,0.6,0.3,0.8c2.3,2.7,4.7,5.2,6.8,8.1C590.2,349.1,590.8,348,591.3,348.5z"/>
	<path class="st0" d="M364.2,406.6c-0.5,0-1.1-0.1-2.1-0.2c0.2,1.2,0.4,2.2,0.6,3.4c1.9-1,3.4-2,5-2.5c2-0.6,3.6-2,5.4-2.9
		c3.7-1.8,7.1-4,10.7-6.1c0.6-0.4,1.3-0.8,2-0.9c3.9-0.6,6.7-3.4,10.3-4.7c1.3-0.5,2.6-1.2,3.8-2.4c-0.5-0.1-1.1-0.4-1.4-0.3
		c-1.9,0.8-4.4,0.5-5.6,2.6c-2.3-0.4-3.3,2-5.5,2.2c-1.4,0.1-1.4,0.5-2.9,0.3c-0.5,0.7-1,1.4-1.7,2.3c-1.4-0.4-2.6-0.2-3.8,0.8
		c-1.3,1-3.1,1.4-4.6,2c-3,1.2-5.1,3.9-8.4,4.6c-0.8,0.1-1.4,0.9-2.1,1.4C363.9,406.4,364.1,406.5,364.2,406.6z"/>
	<path class="st0" d="M417.2,333.1c1.9,1,1.9,1,4.6,0.7c0.9,1,1.9,2.3,3,3.4c0.8,0.8,1.5,2.3,3.1,1.4c0.1-0.1,0.3,0.1,0.5,0.2
		c0.8,0.6,1.6,1.4,2.5,1.7c1,0.3,2.2,0.1,3.7,0.1c-2.6-2-5.1-3.7-7.5-5.5c-0.3-0.3-0.8-0.7-0.8-1c0.3-3-2.4-4.5-3.2-7
		c-1.1-3.3-2.9-6.3-4.3-9.4c-0.3-0.7-0.7-1.5-1.3-2.1c-0.2,2.8,0,5.5,1.2,8.2c0.8,1.8,1.6,3.6,2.3,5.4c0.4,1.1,0.4,2.3,0.6,3.4
		C419.8,332.8,418.6,333,417.2,333.1C417.3,333.2,417.2,333.1,417.2,333.1z"/>
	<path class="st0" d="M445.3,383.4c0.3,0.4,0.6,0.7,1.1,1.3c0.3-0.6,0.5-0.9,0.8-1.6c4.4,0.7,9,1.4,13.5,2.3
		c3.9,0.7,7.7,1.8,11.5,2.5c2.8,0.6,5.7,1,8.5,1.4c0.3,0.1,0.7-0.2,1.4-0.4c-1.3-0.8-2.5-0.8-3.6-1c-4.2-0.6-8.3-1.4-12.5-2
		c-1.2-0.2-1.7-1.8-3.4-1.2c-1,0.4-2.3-0.3-3.8-0.6c-0.2-0.4-0.5-1.1-0.9-2c-1.3,0.2-2.7,0.4-4,0.6c-1.1-0.1-2-1.8-3.6-0.4
		c-0.1,0.1-0.4,0.1-0.5,0c-0.8-0.7-1.5-1.7-2.6-0.5c-1-1-2.1,0.2-3.1,0c-1.5-0.4-3.3,1-4.5-1c-0.3-0.4-1.6-0.3-2.4-0.3
		c-1.4,0.1-2.9,0.5-4.2-0.6c-0.2-0.2-0.6-0.2-0.8-0.2c-1.4,0.5-2.9,1.1-4.3,1.7c3.8-0.2,7.4,1.8,11.3,1.3c0.6-0.1,1.3,0.5,2,0.8
		C442.4,384.1,443.9,384.7,445.3,383.4z"/>
	<path class="st0" d="M578.8,799.3c-3.4,1.8-4,3.6-2.2,7c0.3,0.5,0.4,1,0.7,1.6c1.6,3.7,6.7,6.4,10.6,5.2c1.2-0.3,2.2-1.5,3-2.4
		c0.4-0.4,0.2-1.3,0.3-2.1c-0.6,0.1-0.9,0.1-1.2,0.2c-0.8,0.5-0.7,2-2.4,1.8c-1.5-0.2-3,0.3-4.5-0.8c-3.7-2.5-4.1-3.3-3.1-7.9
		C580.1,801.1,579.9,800.6,578.8,799.3z"/>
	<path class="st0" d="M543,279c0.3-0.9,0.6-1.7,1-3c-0.9,0.4-1.6,0.5-1.9,0.9c-1.4,1.7-2.7,3.5-4,5.3c-1.2,1.8-2.5,3.5-3.5,5.4
		c-1.1,1.9-1.9,4-2.9,6c-0.3,0.6-0.5,1.2-0.7,1.8c-1,1.9-1,1.9,1.2,3.8c0.9-2.2,1.8-4.4,2.7-6.5c1.6-3.9,3.2-7.9,5.9-11.2
		c0.4-0.5,0.4-1.3,0.8-1.8C541.9,279.3,542.6,279.2,543,279C543.1,278.9,543,279,543,279z"/>
	<path class="st0" d="M418.2,784.5c1.5,2.8,1.4,5.7,0.3,8.6c0.8,0.6,1.5,1.2,2.3,1.7c0.2,0.2,0.4,0.4,0.5,0.5
		c0.3-0.6,0.7-1.1,0.9-1.7c0.7-2.8,1.2-5.6,0.8-8.5C422.8,783.2,420.6,782.9,418.2,784.5z"/>
	<path class="st0" d="M678.7,779.5c-1.2,0.4-1.5,1.3-1.4,2.4c0.1,1.2,0.2,2.5,0.1,3.7c-0.2,3,1.9,4.9,3.2,7.2
		c0.2,0.3,1.1,0.6,1.4,0.5c0.4-0.2,0.7-0.9,0.7-1.4c-0.2-1.2-0.4-2.6-1.1-3.4c-1.5-1.9-1.3-4-1.5-6.1
		C680,781.2,679.9,780.1,678.7,779.5z"/>
	<path class="st0" d="M677,367c-0.3,0.3-0.5,0.5-1,1c0.9,0.7,1.3,1.4,2.8,1.2c1.7-0.3,3.5,0.2,5.3,0.4c3.3,0.3,6.5,0.7,9.8,1
		c0.4,0,0.9-0.4,1.3-0.9C689.1,367.7,683,367.2,677,367C676.9,367.1,677,367,677,367z"/>
	<path class="st0" d="M367.9,358.1c0.3,0.5,0.6,1,1,1.5c0,0-0.1,0-0.1,0c2.5-2.3,4.8-4.8,7.9-6.4c1.1-0.6,1.7-2.2,2.7-3.6
		c-3.4-0.2-5.8,1.3-7.9,3.3c-1,0.9-1.7,2.2-3,2.8c-0.4,0.2-0.4,1-0.7,1.5c0,0-0.1-0.1-0.1-0.1c0.6-0.1,1.2-0.2,1.8-0.3
		c0.1,0.2,0.1,0.3,0.2,0.5c-0.7,0.3-1.3,0.7-2,1C367.9,358.2,367.9,358.1,367.9,358.1z"/>
	<path class="st0" d="M485.2,336.5c-0.5-0.8-0.8-1.7-1.3-1.8c-1.9-0.6-3.9-1-6-1.5c-0.2,1.2,0,1.8,1.3,2.1c1.2,0.2,2.4,0.8,3.6,1.1
		c0.9,0.3,1.8,0.4,2.7,0.6c0.6,0.1,1.2,0.3,1.7,0.6c0.3,0.1,0.5,0.5,0.7,0.4c2.1-0.6,4,0.9,6.4,1c-1.2-1.8-1.9-3.4-4.1-2.4
		c-0.3,0.1-0.9-0.2-1.3-0.3C487.1,335.5,487.1,335.5,485.2,336.5z"/>
	<path class="st0" d="M381.4,346c-0.3,0.8-0.5,1.5-0.9,2.7c2.5-0.7,3.6-2.6,5.2-3.9c1.5-1.2,2.8-2.8,5.3-3.2
		c-0.1-0.7-0.3-1.5-0.5-2.4c0,0,0.1,0.1,0.1,0.1c-1.3,1.5-3.3,1.6-4.9,2.4c-2,1-3,2.5-4.2,4.1c0.3-0.1,0.6-0.3,0.8-0.4
		c0,0.2,0,0.5,0,0.7C382,346.1,381.7,346,381.4,346z"/>
	<path class="st0" d="M404.3,336.6c-3.9,0.5-7.8,0.9-11.6,1.4c-0.7,0.1-1.4,0.8-2.1,1.3c0,0-0.1-0.1-0.1-0.1c2.2,1,4.7,1.5,6.7,0.6
		c1.8-0.8,3.6-1.4,5.4-1.9C403.2,337.8,403.7,337,404.3,336.6C404.2,336.5,404.3,336.6,404.3,336.6z"/>
	<path class="st0" d="M486.8,328.9c-0.1-0.1-0.2-0.4-0.4-0.4c-3.3-0.6-6.6-1.2-9.9-1.6c-1.4-0.2-2.9,0.5-4.3-0.3
		c-0.2-0.1-0.8,0.3-1.2,0.9c1.7,0.3,3.4,0.7,5.1,0.9C479.8,328.5,483.2,330.5,486.8,328.9L486.8,328.9z"/>
	<path class="st0" d="M695.9,444.7c-0.1,0.3-0.3,0.6-0.3,0.8c1.7,0.7,3.4,1.3,4.9,2.1c1.3,0.7,2.3,1.8,3.5,2.6
		c1.2,0.8,2.4,1.6,3.9,2.4c0.1-1.9-1.3-2.6-2.4-3.3c-2.3-1.6-4.6-3.1-7-4.6c-0.9-0.6-1.8-1.2-2.7,0.1
		C695.8,444.8,695.9,444.7,695.9,444.7z"/>
	<path class="st0" d="M616.8,454.9c-0.3-2.7-2.2-4-3.8-5.8c-0.7,0.2-1.5,0.4-2.1,0.6C609.7,451.7,612.5,454.1,616.8,454.9z"/>
	<path class="st0" d="M503.7,342.5c-0.3,1.3,0.5,1.9,1.4,2.4c1.7,1,3.5,2,5.3,3c0.7,0.4,1.4,0.5,2.4,0.8c-0.3-1.8-1-2.8-2.5-3
		c-1-0.1-1.8-0.7-2.6-1.4C506.6,343.4,505,343.1,503.7,342.5L503.7,342.5z"/>
	<path class="st0" d="M694.2,443.9c0.1-1.3-0.3-2.3-1.7-2.8c-2-0.6-4-1.3-6.2-1.9c0.5,1.7,1.7,2.7,3.7,3.3
		C691.4,443,692.8,443.4,694.2,443.9C694.2,443.9,694.2,443.9,694.2,443.9z"/>
	<path class="st0" d="M568.9,397.2c-1.5-1.5-3.6-2.1-4.7-4c-1.5,0.7-2.2-0.7-3.1-1.4c-0.9,1.4-0.8,2.1,0.7,2.6
		c1,0.3,1.6,0.7,2.2,1.8C564.8,397.8,566.7,398,568.9,397.2C569,397.1,568.9,397.2,568.9,397.2z"/>
	<path class="st0" d="M653.8,362.6c-0.4,0-0.7,0-1.1-0.1c-0.9,2.1-0.9,2.6,0.6,3.4c1.3,0.7,2.4,2.2,4.3,1.7c0.2-2.8,0-3-2.8-2.9
		C654.4,364,654.1,363.3,653.8,362.6C653.7,362.5,653.8,362.6,653.8,362.6z"/>
	<path class="st0" d="M466.1,331.6c2.5,0.7,4.9,1.4,7.4,2c0.3,0.1,0.7-0.5,1.5-1.2c-3.3-0.7-5.9-1.3-8.6-1.8
		C466.3,330.9,466.2,331.2,466.1,331.6z"/>
	<path class="st0" d="M543.1,278.9c0.1,0.3,0.1,0.7,0.2,1.1c1.8-1.1,3.7-2.2,5.6-3.4c-2.1-2.2-3.2-1.3-4.3,0.4
		C544.1,277.7,543.6,278.3,543.1,278.9C543,279,543.1,278.9,543.1,278.9z"/>
	<path class="st0" d="M410.2,335.1c1.9-0.1,3.8-0.2,5.7-0.3c1-0.1,1.5-0.6,1.3-1.7c0,0,0.1,0.1,0.1,0.1c-2.3,0.2-4.5,0.4-6.9,0.6
		C410.3,334.1,410.3,334.6,410.2,335.1C410.2,335.2,410.2,335.1,410.2,335.1z"/>
	<path class="st0" d="M566.1,388c-0.9,1.5-0.9,1.5-0.3,4.1c0.3-1,0.5-1.7,0.8-2.4c1.5,0.4,2.9,0.8,4.4,1.2
		C570.7,389.4,570.7,389.4,566.1,388z"/>
	<path class="st0" d="M503.7,342.6c-1-0.7-1.9-1.4-3-2c-1.5-0.9-3.1-1.6-4.8-2.6c-0.1,0.6-0.2,1.1-0.2,1.1c2.6,1.5,4.9,2.8,7.3,4.2
		C503.2,343.1,503.5,342.8,503.7,342.6C503.7,342.5,503.7,342.6,503.7,342.6z"/>
	<path class="st0" d="M704.5,800c-0.7-1.3-0.7-1.3-4.3-1.6c-0.8,1.3-0.1,2.3,0.9,2.8C702.5,801.9,703.4,800.7,704.5,800z"/>
	<path class="st0" d="M607.6,445.8c-0.2,1.6,0.2,2.9,1.9,3.7c1.8-2.3-0.4-3.6-1.4-5.6C607.8,444.8,607.7,445.3,607.6,445.8
		C607.6,445.9,607.6,445.8,607.6,445.8z"/>
	<path class="st0" d="M581.4,345.2c-0.1,2.4,2,2.8,2.7,4.2C586.1,347.8,585.6,347,581.4,345.2z"/>
	<path class="st0" d="M492,391.1c-0.3-0.9-0.5-1.4-0.8-2.2c-2.5,2.1-4.9-0.9-7.9,0.3C486.4,389.9,489,390.4,492,391.1z"/>
	<path class="st0" d="M587.2,801.4c0-1.4-0.6-2.3-2.1-2.5c-1.1-0.1-1.8,0.3-2,1.6C584.3,801.2,585.7,801.5,587.2,801.4L587.2,801.4z
		"/>
	<path class="st0" d="M438.6,342.3c2.1,0.8,4.2,1.7,6.9,2.7C443.8,342.8,441.7,342,438.6,342.3z"/>
	<path class="st0" d="M671.1,426.9c1.4-0.6,1.1-1.9,1.8-3.3c-1.8,0.5-3.1,0.9-4.6,1.3c0,0.3,0,0.7,0,1.1
		C669.1,426.7,670.8,425,671.1,426.9C671.1,427,671.1,426.9,671.1,426.9z"/>
	<path class="st0" d="M333.8,398.8C333.8,398.8,333.7,398.8,333.8,398.8c-0.7-0.1-1.4-0.1-2-0.2c-0.5,1.5-0.9,2.6-1.3,3.8
		c0,0-0.1-0.1-0.1-0.1C332.7,402.3,333.2,400.5,333.8,398.8z"/>
	<path class="st0" d="M469.6,326.6c-2.6-0.2-5.3-0.4-8.1-0.7C462.7,326.9,467.1,327.4,469.6,326.6z"/>
	<path class="st0" d="M677.7,428.2c-0.4-1.1-0.9-2.2-1.5-3.6c-0.8,0.7-1.4,1.3-2.2,2c1.2,0.7,2.2,1.3,3.2,1.9
		C677.4,428.5,677.6,428.4,677.7,428.2z"/>
	<path class="st0" d="M641.8,428.8c-0.1-0.4-0.1-1-0.2-1c-1.9-0.5-3.7-1.5-5.6-0.1c0,0,0-0.1-0.1-0.1
		C637.8,428.7,639.8,429.2,641.8,428.8L641.8,428.8z"/>
	<path class="st0" d="M703.8,797c0.6,0.8,1,1.3,1.6,2.1c0.7-1.5,1.2-2.7,1.9-4.1C706.1,795.7,705.1,796.3,703.8,797z"/>
	<path class="st0" d="M741.2,782.4c-1.6,0.8-2.3,2.8-1.6,3.6c0.2,0.2,0.7,0.4,1,0.3c0.4-0.2,0.8-0.6,0.8-0.9
		C741.5,784.6,741.3,783.7,741.2,782.4z"/>
	<path class="st0" d="M588.5,682.1c1.3-0.9,2.8-1.7,2-3.8C587.9,679.8,587.7,680.2,588.5,682.1L588.5,682.1z"/>
	<path class="st0" d="M844.3,594.9c0,0,0.1-0.2,0.1-0.2c0.1,1.7,1.7,1.9,3,2.7c-0.4-1-0.8-2-1.3-3.2
		C845.5,594.4,844.9,594.7,844.3,594.9z"/>
	<path class="st0" d="M537.8,287.3c0.8,0.4,1.5,0.2,1.9-0.6c0.8-1.4,1.5-2.8,2.1-4.3c-1.4,0.6-1.7,2-2.5,3
		C538.7,286,538.3,286.7,537.8,287.3L537.8,287.3z"/>
	<path class="st0" d="M900.1,495.9c-0.1-0.7-0.1-1.3-0.2-2.3c-1.2,0.7-2,1.1-2.9,1.6c0.1,0.2,0.1,0.4,0.2,0.6
		C898.1,495.8,898.9,495.8,900.1,495.9z"/>
	<path class="st0" d="M447.4,340.9c0.8,0.1,1.6,0.3,2.3,0.4c0.2-0.3,0.5-0.6,0.4-0.7c-0.2-0.4-0.5-1.1-0.8-1.2
		C448.5,339.2,447.4,339.2,447.4,340.9z"/>
	<path class="st0" d="M368,357.1c-0.5,0.2-1,0.4-1.4,0.8c-0.9,0.7-1.9,1.5-3.3,2.7c1.1-0.2,1.8-0.1,2.3-0.4c0.9-0.5,1.6-1.3,2.4-2
		c0,0-0.1,0.1-0.1,0.1C367.9,357.8,367.9,357.4,368,357.1L368,357.1z"/>
	<path class="st0" d="M588.6,682.1c-1.4,1-0.7,2.3-0.3,3.7c0.5-0.7,1-1.3,1.4-1.9C589.3,683.3,588.9,682.7,588.6,682.1
		C588.5,682.1,588.6,682.1,588.6,682.1z"/>
	<path class="st0" d="M710.6,456.3c0.4-2.8,0.2-3-2-3C709.2,454.2,709.8,455,710.6,456.3z"/>
	<path class="st0" d="M565.9,728.9c0.2-1,0.4-2,0.6-3.1c-0.6-0.2-1-0.3-2-0.7c0.3,1.7,0.5,3,0.8,4.3c0,0,0,0,0,0
		c0.3-0.2,0.5-0.4,0.8-0.6C566,728.8,565.9,728.9,565.9,728.9z"/>
	<path class="st0" d="M617,424c2.2,0.5,2.5,0.2,2.2-2C618.5,422.7,617.8,423.3,617,424z"/>
	<path class="st0" d="M682.7,437.2c0,1.9,1.3,1.6,2.3,2.3C685.2,437.4,684.2,437.2,682.7,437.2z"/>
	<path class="st0" d="M568.5,391.8c0.6,0.9,1.3,1.9,2,2.8C570.7,392.2,570.6,392.2,568.5,391.8z"/>
	<path class="st0" d="M526.2,413.5c0.3,2.1,1.4,2.7,3.2,2.6C528.5,415.3,527.5,414.5,526.2,413.5z"/>
	<path class="st0" d="M607.6,445.8C607.6,445.8,607.6,445.9,607.6,445.8c-0.7-0.9-1.4-1.9-2-2.9c-0.1,0-0.3,0.1-0.4,0.1
		c0.2,1,0.4,2,0.7,3.1C606.5,446,607,445.9,607.6,445.8z"/>
	<path class="st0" d="M658.7,369.7c1-0.7,1.5-1.1,2.3-1.7c-0.6-0.4-1-0.8-1.4-0.8C658,367.2,658.6,368.2,658.7,369.7z"/>
	<path class="st0" d="M679.7,435.4c-0.2,0.3-0.5,0.5-0.8,0.9c0.8,0.6,1.5,1.2,2.3,1.8c1.1-1.7-1.4-1.5-0.7-2.8
		C680.2,435.3,680,435.4,679.7,435.4z"/>
	<path class="st0" d="M515.7,406.7c-0.8-0.6-1.3-1-2.4-1.8c0.1,1.1,0,1.9,0.3,2.2C514.1,407.5,515,407.9,515.7,406.7z"/>
	<path class="st0" d="M564,747.9c-0.2,0.9-0.5,1.8-0.8,2.9c0.6,0,1,0.1,1.7,0.1c-0.1-1.1-0.3-2-0.4-3
		C564.3,747.9,564.1,747.9,564,747.9z"/>
	<path class="st0" d="M553,278.8c-0.5,0.8-0.7,1.1-0.9,1.4c-0.1,0.1-0.3,0.2-0.6,0.4c0.4,0.7,0.7,1.4,1.4,2.7
		C553,281.5,553,280.4,553,278.8z"/>
	<path class="st0" d="M609.4,418.3c-0.4,1.1-0.8,2.2-1.2,3.3C609.6,421.4,609.6,421.4,609.4,418.3z"/>
	<path class="st0" d="M593.2,697.7c-0.7,0.8-1.4,1.5-2.1,2.3C593,700.2,593,700.2,593.2,697.7z"/>
	<path class="st0" d="M329.3,399.3c-0.3-0.7-0.6-1.3-0.9-1.9C327.3,398.9,327.3,398.9,329.3,399.3z"/>
	<path class="st0" d="M564.3,388.6c-0.5,0.3-1,0.7-1.6,1.1c0.4,0.5,0.8,1,1.5,1.8c0.3-1.1,0.6-1.8,0.8-2.6
		C564.7,388.8,564.5,388.7,564.3,388.6z"/>
	<path class="st0" d="M702.1,461.4c-0.2-0.8-0.3-1.4-0.5-2.3c-0.7,0.3-1.3,0.6-2.2,1C700.6,460.7,701.3,461,702.1,461.4z"/>
	<path class="st0" d="M456.1,325.8c0,0,0.1,0,0.1,0c1.1,0.2,2.1,0.5,3.2,0.7c0-0.2,0.1-0.4,0.1-0.6
		C458.4,325.8,457.2,325.8,456.1,325.8z"/>
	<path class="st0" d="M558.7,435.1c-0.1-1.6-0.8-2.5-2.6-2.2C557,433.7,557.9,434.4,558.7,435.1z"/>
	<path class="st0" d="M721.3,473c-0.5,0.5-1,1-1.7,1.8c0.6,0.1,1.2,0.3,1.2,0.2c0.3-0.6,0.6-1.2,0.9-1.8
		C721.5,473.1,721.4,473.1,721.3,473z"/>
	<path class="st0" d="M590,802.6c-0.3,1.2-0.4,2.1,1,2.6C591.4,803.9,591.1,803.2,590,802.6z"/>
	<path class="st0" d="M429.6,331.4c-1.2-0.2-1.7-0.3-2.3-0.4C427.7,332.5,427.7,332.5,429.6,331.4z"/>
	<path class="st0" d="M641.9,428.7c0.7,0.4,1.4,0.7,2.3,1.2C644,427.8,644,427.8,641.9,428.7C641.8,428.8,641.9,428.7,641.9,428.7z"
		/>
	<path class="st0" d="M565.2,729.3c-0.4-0.5-0.9-1-1.4-1.6c-0.5,0.6-1,1.1-1.6,1.8c0.5,0.2,0.8,0.4,1,0.3
		C563.8,729.7,564.5,729.5,565.2,729.3C565.2,729.3,565.2,729.3,565.2,729.3z"/>
	<path class="st0" d="M464,525.5c0.8-0.5,1.3-0.9,1.9-1.4C464,523.9,464,523.9,464,525.5z"/>
	<path class="st0" d="M534.7,778c-1.3-1.5-2-0.8-2.8,0.7C533,778.4,533.8,778.2,534.7,778z"/>
	<path class="st0" d="M596.3,435.6c0.4,0.7,0.8,1.6,2.6,0.7c-0.9-0.6-1.5-1-2.1-1.4C596.6,435.1,596.5,435.3,596.3,435.6z"/>
	<path class="st0" d="M404.2,336.5c0.4,0,0.7,0,1.2,0c-0.1-2.1-1.3-1.9-2.8-1.5C403.2,335.7,403.7,336.1,404.2,336.5
		C404.3,336.6,404.2,336.5,404.2,336.5z"/>
	<path class="st0" d="M465.1,330.4c-0.9-0.2-1.5-0.3-2.2-0.5c0,0.4-0.2,0.8,0,0.9C463.6,331.7,464.3,331.5,465.1,330.4z"/>
	<path class="st0" d="M438,340c-1.4-0.6-2.3-1-3.3-1.4C435.7,339.7,435.7,339.7,438,340z"/>
	<path class="st0" d="M426.1,548.8c-0.4,0.3-0.9,0.6-1.3,0.9c0,0,0.3,0.5,0.5,0.8c0.4-0.3,0.9-0.6,1.3-1
		C426.5,549.2,426.3,549,426.1,548.8z"/>
	<path class="st0" d="M711.9,614.7c-0.6-1-0.9-1.6-1.2-2.2c-0.3,0.3-0.5,0.3-0.6,0.5C709.9,613.9,710.2,614.5,711.9,614.7z"/>
	<path class="st0" d="M486.9,328.9c-0.4,0.4-0.8,0.9-1.6,1.7c1.3-0.1,2-0.2,3.3-0.3C487.7,329.6,487.2,329.3,486.9,328.9
		C486.8,328.9,486.9,328.9,486.9,328.9z"/>
	<path class="st0" d="M476.3,332.6c-1.2,1.2-1.2,1.2,0.6,2.1C476.6,333.8,476.4,333.3,476.3,332.6z"/>
	<path class="st0" d="M588.1,410c-0.1-0.6-0.3-1.2-0.5-1.7c0-0.1-0.7,0-0.7,0.1c0,0.6,0.1,1.2,0.1,1.8
		C587.4,410.1,587.7,410.1,588.1,410z"/>
	<path class="st0" d="M520.7,410.9c0.5,0.3,1.1,0.6,1.6,1c0.1-0.2,0.2-0.3,0.3-0.5c-0.5-0.4-1-0.7-1.5-1.1
		C521,410.5,520.9,410.7,520.7,410.9z"/>
	<path class="st0" d="M612.2,472.1c0.4,1.7,1.6,1.5,2.5,2c0.1-0.2,0.2-0.4,0.3-0.6C614.1,473,613.2,472.6,612.2,472.1z"/>
	<path class="st0" d="M595.2,693.1c0,0.7-0.1,1.5-0.1,2.2c0.2,0,0.3,0,0.5,0c0-0.7,0-1.5,0-2.2C595.4,693.1,595.3,693.1,595.2,693.1
		z"/>
	<path class="st0" d="M502.5,243.4c-0.3,0.4-0.6,0.9-0.9,1.3c0,0,0.3,0.3,0.4,0.3c0.4-0.3,0.8-0.6,1.2-0.9
		C502.9,243.8,502.7,243.6,502.5,243.4z"/>
	<path class="st0" d="M459,783.9c1.2-0.1,1.8-0.1,2.5-0.2C460.6,782.4,460.6,782.4,459,783.9z"/>
	<path class="st0" d="M849.3,599.1c0.1,0.6,0.2,1.3,0.5,2.3c1-1.3,0.2-1.8,0.1-2.4C849.6,599,849.4,599.1,849.3,599.1z"/>
	<path class="st0" d="M506.6,401c0,1.1,0,1.6,0,2.1C507.6,402.5,507.6,402.5,506.6,401z"/>
	<path class="st0" d="M573.7,741.1c-0.2-0.6-0.4-1.2-0.6-1.8c-0.2,0.1-0.4,0.1-0.5,0.2c0.2,0.6,0.4,1.2,0.5,1.8
		C573.3,741.3,573.5,741.2,573.7,741.1z"/>
	<path class="st0" d="M614.6,421.3c-0.5,0.2-0.7,0.3-1.2,0.5c0.4,0.6,0.8,1.1,1.4,1.8C614.8,422.7,614.7,422.1,614.6,421.3z"/>
	<path class="st0" d="M671.5,434c0.2-0.5,0.5-1,0.7-1.5c-0.2-0.1-0.5-0.2-0.7-0.3c-0.2,0.5-0.4,1-0.7,1.6
		C671.1,433.8,671.3,433.9,671.5,434z"/>
	<path class="st0" d="M562.4,437.8c0.5-0.1,1.1-0.2,1.6-0.3c0-0.2-0.1-0.5-0.1-0.7c-0.5,0.1-1.1,0.3-1.6,0.4
		C562.3,437.4,562.4,437.6,562.4,437.8z"/>
	<path class="st0" d="M360.4,368.7c0.4-0.8,0.8-1.7,1.3-2.6C360.4,366.6,360.5,367.7,360.4,368.7L360.4,368.7z"/>
	<path class="st0" d="M715.4,600.2c0.1,0.4,0.2,0.9,0.3,1.3c0.3-0.1,0.6-0.2,0.9-0.4c-0.3-0.4-0.5-0.8-0.8-1.1
		C715.6,600.1,715.5,600.2,715.4,600.2z"/>
	<path class="st0" d="M502.9,401.2c0.6-0.1,1.2-0.3,1.7-0.4c-0.1-0.2-0.1-0.4-0.2-0.6c-0.6,0.2-1.1,0.4-1.7,0.6
		C502.8,400.8,502.8,401,502.9,401.2z"/>
	<path class="st0" d="M741.9,777.5c0.4,0.5,0.6,0.7,0.8,1c0.2-0.2,0.6-0.4,0.6-0.7c0-0.3-0.2-0.7-0.5-0.8
		C742.7,777,742.3,777.3,741.9,777.5z"/>
	<path class="st0" d="M537.8,287.3c-0.3,1.1-0.7,2.2-1.1,3.5C537.9,289.7,538.3,288.6,537.8,287.3
		C537.8,287.3,537.8,287.3,537.8,287.3z"/>
	<path class="st0" d="M229.5,414.5c0.5-0.9,0.9-1.5,1.2-2.2c-0.2-0.1-0.3-0.2-0.5-0.3C229.9,412.7,228.6,412.8,229.5,414.5z"/>
	<path class="st0" d="M676.7,434.1c0,1,0,1.5,0,2.4C677.9,435.6,678,435,676.7,434.1z"/>
	<path class="st0" d="M588.3,719.9c0.5,0.4,0.8,0.8,0.9,0.7c0.3-0.1,0.5-0.4,0.6-0.7c0-0.1-0.3-0.5-0.5-0.5
		C589.1,719.4,588.9,719.6,588.3,719.9z"/>
	<path class="st0" d="M599.1,689.5c-0.1-0.6-0.1-1.1-0.2-1.7c-0.1,0-0.2,0-0.3,0c0,0.6-0.1,1.1-0.1,1.7
		C598.6,689.4,598.8,689.4,599.1,689.5z"/>
	<path class="st0" d="M695.9,444.7c0,0-0.1,0.1-0.1,0.1c0.3-1.9-0.9-1-1.7-0.9c0,0,0.1-0.1,0.1-0.1
		C694.4,445,695.2,444.7,695.9,444.7z"/>
	<path class="st0" d="M601.6,684.4c0-0.6,0-1.2,0-1.9c-0.1,0-0.1,0-0.2,0c0,0.6-0.1,1.2-0.1,1.8
		C601.4,684.4,601.5,684.4,601.6,684.4z"/>
	<path class="st0" d="M514.5,312.4c-0.2,0.6-0.4,0.9-0.5,1.3c0,0.1,0.4,0.4,0.5,0.4c0.3-0.2,0.6-0.5,0.9-0.8
		C515.1,313.1,514.9,312.8,514.5,312.4z"/>
	<path class="st0" d="M618.1,456.7c-0.5-0.3-1-0.5-1.4-0.8c-0.1,0.1-0.1,0.2-0.2,0.3c0.4,0.4,0.8,0.7,1.2,1.1
		C617.8,457,618,456.8,618.1,456.7z"/>
	<path class="st0" d="M687.1,434.2c0.4,0.1,0.7,0.3,1.1,0.2c0.2,0,0.5-0.4,0.6-0.7c0.1-0.1-0.2-0.6-0.4-0.6c-0.3,0-0.6,0.2-0.9,0.3
		C687.4,433.7,687.3,434,687.1,434.2z"/>
	<path class="st0" d="M573.4,801.3c0.1,0.5,0.2,0.9,0.3,1.4c0.2-0.1,0.4-0.2,0.7-0.2c-0.2-0.4-0.3-0.8-0.5-1.2
		C573.7,801.2,573.5,801.3,573.4,801.3z"/>
	<path class="st0" d="M410.2,335.2c-0.8-0.2-1.7-0.5-2.2,0.8C408.7,335.7,409.5,335.4,410.2,335.2
		C410.2,335.1,410.2,335.2,410.2,335.2z"/>
	<path class="st0" d="M666.4,422.2c-0.4,0.4-0.8,0.8-1.2,1.2c0.1,0.1,0.3,0.3,0.4,0.4c0.4-0.4,0.8-0.8,1.2-1.2
		C666.7,422.5,666.6,422.3,666.4,422.2z"/>
	<path class="st0" d="M360.4,368.7c-1.4-0.4-2,0.3-2.4,1.8C359,369.8,359.7,369.3,360.4,368.7C360.4,368.7,360.4,368.7,360.4,368.7z
		"/>
	<path class="st0" d="M493.8,391.1c0.5,0.3,0.7,0.6,1,0.7c0.1,0,0.5-0.4,0.4-0.5c0-0.2-0.3-0.4-0.6-0.5
		C494.5,390.7,494.3,390.9,493.8,391.1z"/>
	<path class="st0" d="M569.4,742.8c0,0.4,0.1,0.8,0.1,1.2c0.1,0,0.2,0,0.4,0c0-0.4,0-0.8-0.1-1.2
		C569.7,742.8,569.6,742.8,569.4,742.8z"/>
	<path class="st0" d="M573.8,744.6c0.2,0.3,0.4,0.7,0.6,1c0,0,0.4-0.2,0.4-0.2c-0.2-0.4-0.3-0.7-0.5-1.1
		C574.1,744.4,574,744.5,573.8,744.6z"/>
	<path class="st0" d="M567.4,746.7c-0.4,0-0.8,0-1.2,0.1c0,0.2,0,0.3,0,0.5c0.4,0,0.8-0.1,1.2-0.1
		C567.4,747,567.4,746.8,567.4,746.7z"/>
	<path class="st0" d="M581.3,737.3c-0.2,0.3-0.4,0.5-0.4,0.7c0.1,0.2,0.3,0.4,0.5,0.6c0.2-0.2,0.5-0.4,0.5-0.5
		C581.9,737.8,581.6,737.6,581.3,737.3z"/>
	<path class="st0" d="M247.6,753.1c0.2,0.4,0.3,0.9,0.5,1.3c0.2-0.2,0.4-0.3,0.6-0.5C248.3,753.7,247.9,753.5,247.6,753.1
		C247.5,753.2,247.6,753.1,247.6,753.1z"/>
	<path class="st0" d="M517.3,406.4c-0.3,0.3-0.4,0.5-0.6,0.7c0.2,0.2,0.5,0.5,0.7,0.5c0.2,0,0.4-0.3,0.6-0.5
		C517.8,406.9,517.6,406.7,517.3,406.4z"/>
	<path class="st0" d="M484.3,771.2c0.2-0.4,0.4-0.6,0.4-0.8c0-0.2-0.3-0.4-0.4-0.6c-0.1,0.2-0.4,0.4-0.4,0.6
		C483.9,770.6,484.1,770.9,484.3,771.2z"/>
	<path class="st0" d="M718.5,471c0.4,0.2,0.6,0.4,0.7,0.4c0.2-0.1,0.3-0.4,0.3-0.6c0-0.1-0.3-0.3-0.4-0.3
		C719,470.5,718.9,470.7,718.5,471z"/>
	<path class="st0" d="M583.8,726.3c0.3,0.2,0.5,0.5,0.7,0.5c0.1,0,0.4-0.3,0.4-0.4c-0.1-0.2-0.3-0.4-0.5-0.6
		C584.3,725.9,584.1,726.1,583.8,726.3z"/>
	<path class="st0" d="M596.5,416.5c0.2-0.3,0.5-0.5,0.5-0.7c0-0.2-0.4-0.5-0.5-0.5c-0.2,0.1-0.5,0.3-0.6,0.5
		C596,416,596.3,416.2,596.5,416.5z"/>
	<path class="st0" d="M741.4,780.1c0.1,0.4,0.1,0.9,0.2,1.3c0,0,0.3,0,0.5,0c-0.1-0.5-0.1-0.9-0.2-1.4
		C741.8,780,741.6,780.1,741.4,780.1z"/>
	<path class="st0" d="M654.6,375.7c0,0,0.1,0,0.1,0c-0.4,0.2-0.8,0.5-1.5,0.9C654.7,376.7,654.7,376.7,654.6,375.7z"/>
	<path class="st0" d="M611.4,422.3c0.1-0.4,0.2-0.7,0.3-1.1c0,0-0.3-0.1-0.4-0.2c-0.1,0.4-0.3,0.7-0.4,1.1
		C611,422.1,611.2,422.2,611.4,422.3z"/>
	<path class="st0" d="M715.9,368.1c0.3,0.1,0.7,0.4,0.8,0.3c0.2-0.1,0.3-0.5,0.5-0.7c-0.2-0.1-0.5-0.2-0.7-0.2
		C716.3,367.6,716.2,367.8,715.9,368.1z"/>
	<path class="st0" d="M626,423.4c-0.3,0.3-0.7,0.6-1,0.9c0.1,0.1,0.2,0.3,0.3,0.4c0.4-0.2,0.7-0.5,1.1-0.7
		C626.2,423.8,626.1,423.6,626,423.4z"/>
	<path class="st0" d="M716.6,461c0.2-0.3,0.4-0.5,0.4-0.7c0-0.1-0.3-0.3-0.4-0.3c-0.2,0-0.4,0.2-0.6,0.3
		C716.2,460.5,716.3,460.7,716.6,461z"/>
	<path class="st0" d="M587.2,801.4c0.5,0.2,1,0.4,1.8,0.7c-0.2-0.6-0.3-1.1-0.4-1.7C588,800.8,587.6,801.1,587.2,801.4
		C587.2,801.4,587.2,801.4,587.2,801.4z"/>
	<path class="st0" d="M589,705.9c-0.4-0.1-0.7-0.1-1.1-0.2c0,0-0.1,0.4-0.1,0.7c0.4,0,0.8,0.1,1.2,0.1
		C588.9,706.3,588.9,706.1,589,705.9z"/>
	<path class="st0" d="M561.6,435.4c-0.5,0-1.1-0.1-1.6-0.1c0,0.2,0,0.4,0,0.6c0.5,0,1.1,0.1,1.6,0.1
		C561.6,435.8,561.6,435.6,561.6,435.4z"/>
	<path class="st0" d="M717.8,883c-0.2,0.2-0.4,0.3-0.6,0.5c0.2,0.2,0.3,0.3,0.5,0.5c0.2-0.2,0.4-0.4,0.5-0.6
		C718.1,883.3,717.9,883.1,717.8,883z"/>
	<path class="st0" d="M800,646.5c0,1.2-0.1,2.3,0.1,3.5c0.2,1.3,1.1,2.1,2.6,1.6c-0.2-0.6-0.2-1.3-0.6-1.8c-0.7-0.8-1.5-1.6-1.3-2.8
		c0-0.1-0.6-0.3-0.9-0.4C799.8,646.6,800,646.5,800,646.5z"/>
	<path class="st0" d="M854.4,636.6c-2.2,0.2-3.4-0.3-4.8-1.1c-2.8-1.5-5.3-3.6-8.1-4.8c-2.4-1-4.5-2.4-6.9-3.3
		c-2.4-1-4.7-2.3-6.9-3.6c-1.1-0.6-2.2-1.5-3.1-2.4c-2.3-2.3-2.2-3.6,0.3-5.9c-0.5-0.6-1-1.2-1.7-2c0.5-0.1,0.8-0.2,0.9-0.1
		c1.9,1.4,4,1.2,6.2,1.1c1-0.1,2,0,3,0.1c3.5,0.6,6.4,2.5,9.2,4.5c1.3,0.9,2.2,2.3,2.3,4.3c0,2.2,1.3,4,3.4,5.4
		c-0.6,0.4-1,0.6-1.4,0.8c1.2,0.8,2.4,0.6,2.5-0.7c0-3.1,1-6.3-0.6-9.4c-0.5-1-0.7-2.2-2.2-2.3c-0.3,0-0.7-0.6-0.9-1
		c-1.2-3-3.9-3.9-6.6-4.9c-1-0.4-2-0.9-3-1.4c-1.2-0.5-2.3-0.9-3.8-0.4c-1.6,0.6-3.3,0.8-4.9,1.1c-2.9,0.5-5.3,2.1-7.5,3.8
		c-1.4,1.1-1.6,4.7-0.4,6.5c2.2,3.3,4.7,6.3,8.7,7.6c0.6,0.2,1,0.8,1.5,1.2c1.2,0.9,2.4,1.7,4,1.8c1,0,2.1,0.7,3.1,1.2
		c3.4,1.6,6.7,3.3,10,5c0.5,0.2,1.2,0.6,1.2,1c0.2,1.7,1.2,1.8,2.6,1.7c0.8-0.1,1.6,0.4,2.4,0.5c1.3,0.2,2.6,0.7,4-0.4
		C855.5,639.7,853.7,638.9,854.4,636.6z"/>
	<path class="st0" d="M706.3,693.2c-1.5-0.5-2.8-1.2-4.3-1.6c-3.6-0.9-6.4,0.8-9,2.9c-0.8,0.6-1.7,1.2-2.4,1.8
		c-0.7,0.6-1.3,1.2-1.8,2c-0.8,1.3-0.9,3-2.1,4.2c-0.5,0.6-0.1,2.1-0.1,3.4c-0.3,0-0.7,0.1-1.1,0.2c-1.3,3.4-0.2,6.7,0.9,9.9
		c1.3,3.7,6,5.5,9.7,4.2c3.5-1.3,5.8-3.5,6.9-7.1c0.4-1.2,1.4-2.2,2.2-3.4c0.9-1.3,1.8-2.6,2.8-4.1c-1.2-0.9-1.9-2.1-3.5-1.6
		c-2,0.7-0.5,2.5-1.1,3.6c-3.1,2.1-4,5.6-5.9,8.5c-3.7,1.2-6.3-0.3-7.3-4.1c-0.2-0.9-0.9-1.7-1.2-2.7c-1-2.6,0.6-7.7,2.9-9.3
		c0.4-0.3,0.9-0.4,1.2-0.7c1.9-2.7,5.3-3,7.8-4.7c0.3-0.2,0.9-0.2,1.3-0.2C704.3,694.5,704.3,694.5,706.3,693.2z"/>
	<path class="st0" d="M707.9,702.9c0.7-0.9,1.3-1.7,2.1-2.8c-0.4-0.8-0.9-1.6-1.3-2.5c-0.2,0-0.5,0.1-0.7,0.1
		c-0.2,1.7-0.3,3.3-0.5,5C707.6,702.7,707.8,702.8,707.9,702.9z"/>
	<path class="st0" d="M813.3,711c0.3-0.1,0.8-0.2,1-0.5c0.3-0.4,0.5-1,0.7-1.5C812.9,708.4,812.8,708.5,813.3,711
		C813.3,711.1,813.3,711,813.3,711z"/>
	<path class="st0" d="M813.3,711.1c-1.3,0.9-2.1,2-1.4,4.2C812.5,713.5,812.9,712.3,813.3,711.1C813.3,711,813.3,711.1,813.3,711.1z
		"/>
	<path class="st0" d="M777,653.9c1,1.4,2.6-0.1,3.8,0.8C779.7,653.2,778.2,654,777,653.9L777,653.9z"/>
	<path class="st0" d="M802.4,643.9c-0.5-0.1-1-0.2-1.5-0.3c0,0.1-0.1,0.2-0.1,0.3c0.5,0.2,1,0.4,1.5,0.6
		C802.3,644.3,802.4,644.1,802.4,643.9z"/>
	<path class="st0" d="M776.9,654c0.5-1.6-0.2-1.5-1.8-1C776,653.4,776.5,653.7,776.9,654C777,653.9,776.9,654,776.9,654z"/>
	<path class="st0" d="M801.4,640.8c-0.3,0.2-0.5,0.4-0.8,0.5c0,0,0,0.2,0,0.2c0.3-0.2,0.6-0.4,0.9-0.5
		C801.5,641,801.5,640.9,801.4,640.8z"/>
	<path class="st0" d="M716.6,621.4c-0.1,0.3-0.4,0.6-0.3,0.8c0,0.2,0.4,0.4,0.6,0.4c0.2-0.1,0.4-0.4,0.4-0.6
		C717.2,621.7,716.9,621.6,716.6,621.4z"/>
	<path class="st0" d="M770,543.9c0-0.9,0-1.4,0-2c-0.4,0-0.6,0-0.7,0.1C768.6,542.7,768.6,543.3,770,543.9z"/>
	<path class="st0" d="M566.8,416.4c-0.2,0.1-0.5,0.2-0.5,0.3c0,0.2,0.1,0.5,0.1,0.7c0.1-0.1,0.4-0.1,0.4-0.2
		C566.9,417,566.8,416.7,566.8,416.4z"/>
	<path class="st0" d="M279.5,597.6c-0.4,0-0.8,0-1,0.2c-1.1,1-2.3,1.2-3.6,0.4c-0.7,0.9-1.2,1.6-1.8,2.3c-2.1,2.8-2,3.9-0.2,6.9
		c0.7,1.2,1.4,2.3,2.6,3c0.7,0.4,0.9,1.5,1.4,2.2c1.4,0.4,2.8,0.7,4.2,1.1c3,0.9,5.9,2.1,8.9,2.7c3.5,0.6,11-0.6,13.4-4.9
		c-0.4-0.6-0.8-1.3-1.3-2c-1.2,2.6-3.4,3.3-5.7,3.5c-4.1,0.3-8.1-0.3-11.9-1.8c-1.3-0.6-2.5-1.6-3.7-2.4c-0.4-0.3-0.8-0.7-1.3-0.8
		c-2.4-0.7-3.5-2.3-3.8-4.6c1.2-1.1,2.1-2.3,3.4-3.1c2.7-1.5,5.3-3.4,8.8-1.4c1.5,0.9,3.6,0.7,5.5,1c0.7,0.1,1.4,0.4,2,0.8
		c1.6,1,3.1,2.1,4.6,3.2c0.8,0.6,1.7,1.1,2.5,1.6c1-0.6,1.2-1.5,0.4-1.9c-2.1-1-2.8-3.8-5.5-4.2c-0.9-0.1-1.5-1.8-2.5-2.4
		c-2.1-1.2-4.3-2.3-6.5-3.2c-0.6-0.3-1.5-0.2-2.2-0.1c-0.6,0-1.1,0.4-1.7,0.3C281.4,593.7,280.1,595.1,279.5,597.6
		c0.7-0.4,1.1-1.6,2.3-0.9C281.5,598.3,280.2,597.2,279.5,597.6z"/>
	<path class="st0" d="M331.2,650.6c1.1-0.3,2.5-0.2,3.3-0.9c0.8-0.7,0.9-2.2,1.4-3.2c3-5.5,8.6-5.8,13.8-6.6
		c0.5-0.1,1.1,0.3,1.6,0.5c1.4,0.8,2.4,1.7,3.4,3.2c1,1.4,1.6,2.5,1.6,4.1c-2.1,0.8-3.8,1.9-5.1,3.6c-2.3,3.1-4.7,6.1-6.9,9.2
		c-1.9,2.7-4.6,3.8-6.9,2.2c-1.6-1.2-2.7-2.9-3.1-4.9c-0.5-2.4-0.8-5-3.4-6.4C331.1,651,331.1,650.8,331.2,650.6z M350.4,645.2
		c-0.7-1.9-1.5-2.3-3.1-1.7c-1.9,0.7-3.8,1.7-5.8,2c-2.4,0.4-2.8,2.2-3.4,3.9c-0.2,0.5-0.1,1.1-0.3,1.6c-1.3,3.3-0.5,6.1,1.8,8.9
		c0.4-0.3,0.8-0.5,1.1-0.9c1.1-1.2,2.2-2.5,3.2-3.8c0.3-0.3,0.6-0.8,0.7-1.2c0.2-1.9,1.6-2.8,2.7-4.1c1.4-1.5,3.4-2.4,3.9-4.7
		c0.6,0.3,1.2,0.5,2.3,1c-1.1-1.7-1.1-1.7-2.2-0.9C351,645.5,350.5,645.5,350.4,645.2z"/>
	<path class="st0" d="M406.5,650.1c-1.7,1.6-2.5,4.8-1.5,6.8c0.3,0.6,0.8,1.1,0.9,1.7c0,0.5-0.6,0.9-1,1.4c-0.3-0.4-0.8-0.7-0.9-1.1
		c-0.3-0.8-0.5-1.6-0.6-2.4c-0.6-2.9-2-5.6-0.5-8.7c0.5-1,0.9-1.6,1.9-2.1c3.3-1.6,6.2-0.6,8.8,1.4c0.6,0.5,1,1.5,1.1,2.4
		c0.3,1.3,0,2.7,0.5,3.9c1.3,3.4,1.4,6.9,1.7,10.4c0.2,2.3-0.4,4.2-2,5.9c-2.3,2.6-5.3,2.6-7.8,0.3c-2.2-2-2.7-4.7-3.4-7.3
		c-0.1-0.6,0.1-1.2,0.2-1.9c1.3,0.9,2.5,1.5,3.3,2.4c0.8,1.1,1.2,2.5,1.8,3.8c0.6,1.2,1.9,1.6,3.1,1.1c0.7-0.3,1.3-0.7,1.9-1
		c0.3-1.1,0.6-2.2,0.9-3.3c0,0,0-0.1-0.1-0.2c-1.7-2.3-4.6-4.2-3-7.8c0.1-0.2-0.2-0.7-0.4-1c-0.8-1.7-1.5-3.4-2.3-5.2
		C408.3,649.4,407.5,649.2,406.5,650.1z M412.7,658.8c0.2,0.1,0.3,0.1,0.5,0.2c0.2-0.5,0.4-1,0.6-1.5c-0.2-0.1-0.5-0.2-0.7-0.2
		C413,657.8,412.9,658.3,412.7,658.8z"/>
	<path class="st0" d="M240.8,692c0.1-1.6,0.6-3,1.6-4.4c0.7-0.9,1.1-2.2,1.1-3.4c0.2-3.4,0.6-6.7,2.5-9.7c1.2-1.9,1.7-4.2,2.6-6.2
		c0.2-0.6,0.7-1,1.3-1.8c3.7,3.5,2.7,8.5,4.7,12.4c1.4-3.1,1-6.2,0.3-9.6c-0.8,0.3-1.4,0.4-2.3,0.7c0.5-0.9,0.9-1.6,1.3-2.1
		c-0.3-1.2-0.5-2.4-0.8-3.8c-1.4,0-2.7-1.5-4.5-0.1c-0.7,0.5-1.3,0.9-1.6,1.8c-0.2,0.7-0.6,1.4-1.1,1.9c-3.6,3.9-4.5,8.8-5.5,13.7
		c-0.3,1.6,0.5,3.5-0.2,4.8c-0.8,1.6-0.6,3.1-0.5,4.6C239.8,691.3,240.4,691.7,240.8,692C240.8,692,240.8,692,240.8,692z"/>
	<path class="st0" d="M440.5,612.7c-0.5-1.1-0.9-2-1.3-2.9c-2.6-0.7-5.4-1.5-8.3-2.3c1.8-2.4,1.8-2.4,6.8-4.8
		c-0.2-0.9-0.4-1.8-0.6-3c1.3,0,2.8,0,4.3,0c-1.5-2.3-3.8-2.8-5.7-1.4c-1.9,1.4-3.7,3.1-5.7,4.4c-1.8,1.1-2.3,2.9-3.1,4.6
		c-0.3,0.6-0.1,2,0.3,2.3c1.3,0.9,2.8,1.8,4.4,2.1c2.5,0.5,5,0.5,7.5,0.7C439.5,612.4,439.9,612.5,440.5,612.7z"/>
	<path class="st0" d="M362.6,576.9c-0.8-2.3-0.9-5-0.8-7.8c1.1-0.5,2.2-0.9,3.3-1.3c0-0.2-0.1-0.3-0.1-0.5c-0.4,0-0.9-0.1-1.5-0.1
		c-0.1-0.4-0.1-1.1-0.5-1.5c-0.7-0.9-1.7-1.5-3-1.1c-1,0.3-2.3,2-2.2,3.3c0.2,1.6,0.4,3.4,1.1,4.8c1.5,2.6,3.1,5.2,5.1,7.4
		c1.9,2,4.6,2.7,7.4,2.3c0.4-0.1,0.7-0.2,1.1-0.3c2.8-0.4,3.2-1,2.9-3.8c-2.6-1.9-3.7-1.6-4.1,1.5c-2.4,0.1-4.1-1.4-6.1-2.3
		C364.7,577.3,363.9,577.2,362.6,576.9z"/>
	<path class="st0" d="M358.7,719.8c-5.5,0-7.1,3.9-7.4,7.3c-0.2,3-0.2,6-0.2,9c0,0.7,0.1,1.3,0.2,2c0.5,2.2,2,2.8,3.6,1.1
		c1-1,1.7-2.4,2.6-3.6c0.5-0.8,1-1.6,1.5-2.4c0.5-0.8,0.9-1.5,1.1-2.5c-3,1.1-3.2,4.8-5.9,6.4c0.2-1.9-1.2-3.2-0.7-5.1
		c0.7-2.9,1.1-5.8,1.8-8.7c0.2-0.7,1-1.3,1.6-1.9C357.6,720.8,358.2,720.3,358.7,719.8z"/>
	<path class="st0" d="M376.1,648.2c0.1,1.2,0.2,2,0.3,2.7c0.8,3.3,1.7,6.5,2.6,9.8c0.3,1.1,0.7,2.1,1,3.2c0.2,0.9,0.7,2.1,0.3,2.7
		c-0.8,1.4-0.5,2.8-0.4,4c0.2,2,0,3.9-0.3,5.8c-0.1,1.2,0,2.2,1,3.2c1.6-1.5,1.8-3.3,1.1-4.9c-1.1-2.3-0.8-4.6-0.5-6.8
		c0.4-2.5,0.6-4.8-0.4-7.2c-0.1-0.3-0.3-0.6-0.2-0.8c0.8-3-0.1-5.6-1.1-8.5C378.9,649.8,377.9,649.2,376.1,648.2z"/>
	<path class="st0" d="M247.8,695.3c-0.8,1.4-1.7,2.7-2.5,4.1c-1.2-0.3-1.6-2.4-3.3-1.1c0.4,1.9,1.7,2.9,3.6,3.7
		c1.5-1.9,2.1-4.2,3-6.3C248.4,695.6,248.1,695.5,247.8,695.3z"/>
	<path class="st0" d="M402.9,623.5c-0.7-0.6-1.3-1.1-1.9-1.6c-0.9,0.7-1.8,1.3-2.8,2c0.2,1,0.5,2.1,0.8,3.4c0.9-0.1,2,0.6,2-1.3
		C401.1,625.3,402.1,624.6,402.9,623.5z"/>
	<path class="st0" d="M253.2,690.9c0.6-2.5,0.7-5,1.7-7.4c0.3-0.8-0.1-1.9-0.3-3.2c-0.8,0.5-1.5,0.8-1.5,1
		C253.5,684.4,252.3,687.7,253.2,690.9z"/>
	<path class="st0" d="M357.9,725.8c0.2-0.7,0.3-1.5,0.6-2.1c0.3-0.6,1-1.3,1.5-1.3c1.4,0,1.6-1.1,2.2-2.1c-0.5-0.4-1-0.8-1.5-1.1
		c-1.1,1.1-2.5,1.9-3.2,3.1c-0.5,0.9-0.3,2.2-0.4,3.4C357.4,725.8,357.7,725.8,357.9,725.8z"/>
	<path class="st0" d="M442.2,605.2c0.7,0,1.3,0.1,2,0.1c1.2,0.2,1.8-0.3,1.9-1.5c0-1-0.3-1.9-1.5-2.1c-1.1-0.2-2.1,0.5-2.2,1.7
		C442.3,604.1,442.3,604.7,442.2,605.2L442.2,605.2z"/>
	<path class="st0" d="M444.7,615.6c0.5-0.8,0.8-1.4,1.3-2c-0.8-1.2-1.1-2.8-3-2.9C441.9,612.9,443.7,614,444.7,615.6z"/>
	<path class="st0" d="M352.4,617.8c2.4,1.3,3.2,1,4.4-1.6C354.6,615.1,354,617.7,352.4,617.8z"/>
	<path class="st0" d="M357.2,643.2c-0.7,1.4-0.4,2.4,1.1,3.4c0.4-0.8,1.2-1.6,1.2-2.3C359.5,642.7,358.1,643.3,357.2,643.2z"/>
	<path class="st0" d="M379.2,646.6c-1.4-0.7-3-0.8-2.8-3c-1,1.8-0.8,2.8,0.5,3.7C377.5,647.6,378.6,647.4,379.2,646.6z"/>
	<path class="st0" d="M240.8,692c-1,0.9-1.3,1.9-0.2,2.8c0.8,0.8,1.5,0.5,1.9-0.6C242.3,693.3,240.1,693.7,240.8,692
		C240.8,692,240.8,692,240.8,692z"/>
	<path class="st0" d="M263.6,722.4c0,1.1,0,2.1,0,3.2c0.1,0,0.3,0.1,0.4,0.1c0.2-1.1,0.4-2.1,0.6-3.2
		C264.2,722.4,263.9,722.4,263.6,722.4z"/>
	<path class="st0" d="M369.5,575.1c0.3,0.7,0.5,1.4,0.8,2.2c0.5-1.3,0.5-1.3-0.2-2.4C369.9,575,369.7,575,369.5,575.1z"/>
	<path class="st0" d="M368.2,575.8c0.7-2.3,0.7-2.3-1.6-2.3C367.1,574.3,367.6,575,368.2,575.8z"/>
	<path class="st0" d="M483.2,660.1c0.2-1.4,1.1-2.6-1-3.1C482.1,658.1,482,659.1,483.2,660.1z"/>
	<path class="st0" d="M356.9,716.8c-0.9,0-1.5,0-2.4,0c0.5,0.9,0.8,1.4,1.3,2.4C356.3,718.3,356.5,717.7,356.9,716.8z"/>
	<path class="st0" d="M380.1,617.5c0.3-0.5,0.6-1.1,0.9-1.6c-0.2-0.1-0.4-0.2-0.6-0.4c-0.3,0.5-0.7,1-1,1.5
		C379.6,617.2,379.9,617.3,380.1,617.5z"/>
	<path class="st0" d="M416.9,763.5c-0.3,0.6-0.7,1.2-1,1.8c0.1,0.1,0.2,0.2,0.4,0.2c0.4-0.6,0.8-1.2,1.1-1.8
		C417.2,763.7,417,763.6,416.9,763.5z"/>
	<path class="st0" d="M361.7,730.6c0,0.4-0.1,0.9-0.1,1.3c0,0,0.4,0.1,0.5,0.1c0.2-0.4,0.3-0.9,0.4-1.3
		C362.2,730.7,362,730.6,361.7,730.6z"/>
	<path class="st0" d="M442.3,605.2c0,0.5,0,1,0.2,1.5c0.1,0.2,0.6,0.2,1,0.3c0.2-0.2,0.3-0.5,0.5-0.7
		C443.4,606,442.8,605.6,442.3,605.2C442.2,605.2,442.3,605.2,442.3,605.2z"/>
	<path class="st0" d="M442.1,724.2c0.5,0.4,0.7,0.6,1,0.7c0.2,0,0.6-0.3,0.6-0.4c0-0.3-0.2-0.7-0.5-0.8
		C443,723.6,442.7,723.9,442.1,724.2z"/>
	<path class="st0" d="M356.1,575.4c-0.1,0.5-0.3,1-0.4,1.5c0.2,0.1,0.3,0.1,0.5,0.2c0.2-0.5,0.4-1,0.6-1.5
		C356.6,575.5,356.4,575.4,356.1,575.4z"/>
</g>
</svg>
